<?xml version="1.0" encoding="utf-8"?>
<!-- Generator: Adobe Illustrator 24.3.0, SVG Export Plug-In . SVG Version: 6.00 Build 0)  -->
<svg version="1.1" id="Layer_1" xmlns="http://www.w3.org/2000/svg" xmlns:xlink="http://www.w3.org/1999/xlink" x="0px" y="0px"
	 viewBox="0 0 2930.1 541" style="enable-background:new 0 0 2930.1 541;" xml:space="preserve">
<style type="text/css">
	.st0{fill:none;stroke:#FFFFFF;stroke-width:12;stroke-linejoin:round;stroke-miterlimit:10;}
</style>
<g id="Layer_2_1_">
	<g id="Layer_1-2">
		<g id="Layer_2-2">
			<g id="svg17">
				<g id="Group_1154">
					<path id="Path_15" class="st0" d="M301.3,214.3c33.1,35,50.9,81.7,49.4,129.9c0.8,37.3-9.7,73.9-30.4,105
						C261,531,127.8,543.5,54,475.5C18.6,441.1-0.7,393.4,0.6,344.1c-0.9-48.8,18.6-95.7,53.8-129.5
						C118.7,154.6,237.6,152.8,301.3,214.3L301.3,214.3z M247.2,244.3c19.8,29.4,29.7,64.4,28.2,99.9c1.4,28.3-3.7,56.6-15,82.7
						c-21.2,45.6-75.3,65.3-120.9,44.1c-12.9-6-24.3-15-33.1-26.2c-21.6-29.1-32.9-64.4-32.2-100.6c-2-35.9,7.9-71.5,28.2-101.3
						c34-39.7,93.7-44.3,133.3-10.3C239.8,236.1,243.7,240,247.2,244.3L247.2,244.3z"/>
					<path id="Path_16" class="st0" d="M1162.1,214.3c57.9,65.3,65.7,161.1,19,234.9c-59.3,81.9-192.4,94.5-266.3,26.3
						c-35.2-34.5-54.5-82-53.4-131.3c-0.9-48.8,18.6-95.7,53.8-129.5C979.5,154.6,1098.4,152.8,1162.1,214.3z M1107.9,244.3
						c19.8,29.4,29.7,64.4,28.2,99.9c1.4,28.3-3.7,56.6-15,82.7c-21.2,45.6-75.3,65.3-120.9,44.1c-12.9-6-24.3-15-33.1-26.2
						c-21.6-29.1-32.9-64.4-32.2-100.6c-2-35.9,7.9-71.5,28.2-101.3c34-39.7,93.7-44.3,133.4-10.3
						C1100.6,236.1,1104.4,240,1107.9,244.3L1107.9,244.3z"/>
					<path id="Path_17" class="st0" d="M2880.2,214.3c57.9,65.3,65.7,161.1,19,234.9c-59.3,81.9-192.4,94.5-266.3,26.3
						c-35.2-34.5-54.6-82-53.4-131.3c-0.9-48.8,18.6-95.7,53.8-129.5C2697.7,154.6,2816.5,152.8,2880.2,214.3L2880.2,214.3z
						 M2826.1,244.3c19.8,29.4,29.7,64.4,28.2,99.9c1.4,28.3-3.8,56.6-15,82.7c-21.2,45.6-75.3,65.3-120.9,44.1
						c-12.9-6-24.3-15-33.1-26.2c-21.5-29.1-32.9-64.4-32.2-100.6c-2-35.9,7.9-71.5,28.2-101.3c34-39.7,93.7-44.2,133.4-10.2
						C2818.8,236.1,2822.6,240,2826.1,244.3L2826.1,244.3z"/>
					<path id="Path_18" class="st0" d="M1488.3,177.3h73.2v332.2h-73.2V177.3z"/>
					<path id="Path_19" class="st0" d="M2452.6,177.3h73.2v332.2h-73.2V177.3z"/>
					<path id="Path_20" class="st0" d="M2418.9,177.3v42.1c-36.2-9.1-65.1-7.7-82.3,6.6c-9.4,8.3-15.5,19.7-17.2,32.2
						c-1.1,7.7-1.5,15.6-1.1,23.4v227.9h-73.2V291.8c-2.1-36.7,13.1-72.3,41-96.2C2317.2,172.2,2363.2,168.6,2418.9,177.3z"/>
					<path id="Path_21" class="st0" d="M1448.8,510.2l-9.1-36.9c-36.2,9.1-65.1,7.7-82.3-6.6c-9.4-8.3-15.5-19.7-17.2-32.2
						c-1.1-7.7-1.5-15.6-1.1-23.4V220.5h105.7v-42.8H1339v-57.1c1.1-42.8-27-55.6-73.2-50.8v331.4c-2.1,36.7,13.1,72.3,41,96.2
						C1337.6,520.8,1388.4,524.8,1448.8,510.2L1448.8,510.2z"/>
					<path id="Path_22" class="st0" d="M1879.7,501.4c-66.9,28.5-163.5,20.5-209.6-16.8c-36.6-29.3-56.7-77.1-56.7-140.5
						c-0.9-48.8,18.6-95.7,53.8-129.5c51.6-48.2,139.7-58.5,203.4-33.3V226c-45.3-24.5-100.5-20.9-142.3,9.1
						c-28.9,24.1-39.5,65.6-39.1,106.8c-1.4,36.9,9.7,73.3,31.5,103.2c23.4,24.3,56.9,36.1,90.4,31.8c20.1-0.6,39.7-6.1,57.1-16.1
						L1879.7,501.4L1879.7,501.4z"/>
					<path id="Path_23" class="st0" d="M1930.2,229.3v-43.9c97.3-29.3,147.8-69.1,181.8-113.7h59.6c-31.6,44.8-75.6,79.2-126.6,99.1
						c29.3-1.2,58.5,4.4,85.2,16.5c30.6,15.2,51.5,44.7,55.6,78.7c2.1,15.4,3,30.9,2.6,46.5v200.8h-11.3
						c-34.7,0-54.9-11.7-57.8-39.9l0,0c-26.6,29.6-64.8,46.3-104.6,45.7c-31.4,2-62.5-7.8-87.1-27.4c-18.4-17.5-28.9-41.9-28.9-67.3
						c-2.5-39.3,18.7-76.2,53.8-94c32.1-16.7,68-24.9,104.3-23.8l60,0.4v-20.5c0.5-15.4-3.7-30.6-12.1-43.5
						c-7.4-10.7-17.5-19.3-29.3-24.9C2041.3,202.5,1990.5,208.8,1930.2,229.3L1930.2,229.3z M2116.7,346.7h-48.2
						c-27.8-1.9-55.4,5.4-78.6,20.9c-14.9,13.4-22.3,33.1-20.1,53c-1.2,21.7,10.4,42.2,29.6,52.3c8.4,4.2,17.6,6.4,27,6.6
						c37,0.1,70.7-21.7,85.6-55.6c3.2-8.3,4.8-17.1,4.8-26v-51.2H2116.7z"/>
					<path id="Path_24" class="st0" d="M482,45.3h-24.9c-0.4,0-0.4,0-0.7-0.4l0,0c-0.4,0-0.7,0-0.7-0.4h-0.4c-0.4,0-0.4,0-0.7-0.4
						h-0.4l-0.7-0.4h-0.4l-0.7-0.4H452l-0.7-0.4h-0.4l-0.7-0.4l0,0l-0.4-0.4h-0.4L449,42l0,0l-0.4-0.4h-0.4l-0.7-0.4l-0.4-0.4
						l-0.4-0.4l0,0l-0.4-0.4l0,0l-0.4-0.4l-0.4-0.4L445,39l-0.4-0.4l-0.4-0.4l0,0l-0.4-0.4l0,0l-0.4-0.4l0,0l-0.7-0.7l0,0l-0.3-0.3
						L442,36l-0.4-0.4l0,0L441,35l0,0l-1.1-1.1l0,0l-0.7-0.7v-0.3c-0.4-0.4-0.8-0.9-1.1-1.5l0,0c-0.6-0.8-1.1-1.7-1.5-2.6
						c-4.4-8.7-6-18.5-4.4-28.1h184c43.4-1.8,86.3,10.1,122.5,34c30.9,22.7,49.1,58.9,48.7,97.3c0.5,29.1-10.2,57.3-30,78.7
						c-14.4,14.4-31.4,25.9-50.1,34c21.6,6.1,42,16.2,60,29.6c34.5,27.4,54.2,69.4,53.4,113.4c0.5,33.5-11.2,66-32.9,91.5
						c-64,71.4-208.2,82.4-287.9,23.2c-26.5-19.6-45.4-47.8-53.4-79.7l0,0c-6.4-26.2-9.7-53.1-9.9-80.1V84.8
						c17.9-3.1,36.4-0.8,53,6.6c17.2,13.6,26,35.3,23.1,57.1l-0.4,196.8c-0.8,34.7,7.7,69.1,24.5,99.5
						c11.3,19.8,28.9,35.1,50.1,43.5c38.9,14.5,82.4,10.1,117.5-12.1c34-24.9,37.3-66.6,36.9-92.2c1.7-34.2-13.5-67-40.6-87.8
						c-21.8-14.7-47.6-22.2-73.9-21.6H560v-49.4h73.2c6.2-0.6,12.4-2,18.3-4c10.6-2.3,20.5-7.2,28.9-14.2c21.8-22,32.8-52.5,30-83.4
						c-2.9-41-26.7-79.4-115.2-79.4H482V45.3z"/>
				</g>
			</g>
		</g>
	</g>
</g>
</svg>
