<svg xmlns="http://www.w3.org/2000/svg" xmlns:xlink="http://www.w3.org/1999/xlink" viewBox="0 0 835.83 488.74"><defs><linearGradient id="linear-gradient" x1="1792.78" y1="-378.29" x2="1868.44" y2="-378.29" gradientTransform="translate(-1425.64 -91.19) rotate(18.94)" gradientUnits="userSpaceOnUse"><stop offset="0" stop-color="#6184c3"/><stop offset="1" stop-color="#2e5997"/></linearGradient><linearGradient id="linear-gradient-2" x1="1717.84" y1="-350.59" x2="1828.22" y2="-350.59" gradientTransform="translate(-1425.64 -91.19) rotate(18.94)" gradientUnits="userSpaceOnUse"><stop offset="0" stop-color="#d6de23"/><stop offset="1" stop-color="#37b34a"/></linearGradient><linearGradient id="linear-gradient-3" x1="1803.63" y1="-382.54" x2="1915.22" y2="-277.06" gradientTransform="translate(-1425.64 -91.19) rotate(18.94)" gradientUnits="userSpaceOnUse"><stop offset="0" stop-color="#ee3b29"/><stop offset="1" stop-color="#f6921e"/></linearGradient><linearGradient id="linear-gradient-4" x1="1828.54" y1="-471.37" x2="1848.88" y2="-546.75" gradientTransform="translate(-1425.64 -91.19) rotate(18.94)" gradientUnits="userSpaceOnUse"><stop offset="0" stop-color="#5aacdf"/><stop offset="1" stop-color="#1a74ab"/></linearGradient><linearGradient id="linear-gradient-5" x1="354.55" y1="220.99" x2="394.87" y2="220.99" gradientUnits="userSpaceOnUse"><stop offset="0" stop-color="#26a9e0"/><stop offset="1" stop-color="#1b75bb"/></linearGradient><linearGradient id="linear-gradient-6" x1="387.34" y1="217.85" x2="460.51" y2="217.85" gradientUnits="userSpaceOnUse"><stop offset="0" stop-color="#f06022"/><stop offset="0.59" stop-color="#ee412b"/><stop offset="1" stop-color="#ed3030"/></linearGradient><linearGradient id="linear-gradient-7" x1="377" y1="184.08" x2="404.01" y2="184.08" gradientTransform="matrix(1, 0, 0, 1, 0, 0)" xlink:href="#linear-gradient"/><linearGradient id="linear-gradient-8" x1="459.96" y1="184.9" x2="420.13" y2="298.37" gradientUnits="userSpaceOnUse"><stop offset="0" stop-color="#f6921e"/><stop offset="1" stop-color="#f05a28"/></linearGradient><linearGradient id="linear-gradient-9" x1="425.32" y1="203.08" x2="426.75" y2="133.07" gradientUnits="userSpaceOnUse"><stop offset="0" stop-color="#d96228"/><stop offset="1" stop-color="#0065b1"/></linearGradient><linearGradient id="linear-gradient-10" x1="405.77" y1="204.19" x2="407.58" y2="115.48" xlink:href="#linear-gradient-9"/><linearGradient id="linear-gradient-11" x1="395.62" y1="215.78" x2="447.02" y2="197.46" gradientUnits="userSpaceOnUse"><stop offset="0" stop-color="#f6921e"/><stop offset="0.1" stop-color="#f58420"/><stop offset="0.32" stop-color="#f26d25"/><stop offset="0.52" stop-color="#f15f27"/><stop offset="0.69" stop-color="#f05a28"/></linearGradient></defs><g id="Layer_2" data-name="Layer 2"><g id="svg17"><path d="M691.29,404.41c0-15.32-5.19-25.33-24.41-26.51,11.67-5.84,24.67-14.69,31-21,.78-.76.67-1.4.25-1.79l-2.7-2.73a1.21,1.21,0,0,0-1.71,0c-11.54,11-29,22.48-50,30a1.11,1.11,0,0,0-.53,1.58l1.55,3.51a1,1,0,0,0,1.3.53c10.91-4.56,18.45-4,18.84-4,15.84,0,19.06,10,19.06,19.08v8.42c0,.8-.23,1.07-.63,1.07a1.21,1.21,0,0,1-.79-.38c-5.05-4.81-10.25-7.66-18.82-7.66-17.52,0-26.22,12.08-26.22,26,0,14.69,8.82,25.06,25.19,25.06,9.85,0,15.48-4,20.52-9.47a.7.7,0,0,1,.52-.26c.39,0,.51.26.51.65v7.4c0,.65.4,1,1.16,1h4.7c.77,0,1.16-.38,1.16-1ZM266.1,426.36c0,18.82,9.35,29.35,28.43,29.35,17.92,0,28.44-10.15,28.44-29.35v-19.1c0-19.21-10.12-29.36-28.44-29.36-17.53,0-28.43,10.15-28.43,29.36Zm7.4-19c0-14.66,6.5-23.11,21-23.11,14.16,0,21,8.45,21,23.11v18.84c0,14.69-6.48,23.15-21,23.15-14.15,0-21-8.46-21-23.15ZM200,379.87c0-.67-.39-1.05-1.16-1.05H194.4c-.76,0-1.15.38-1.15,1.05v105.3c0,.66.39,1,1.15,1h4.83c.76,0,1.16-.37,1.16-1V447c0-.38.13-.66.51-.66a.54.54,0,0,1,.51.28,27.44,27.44,0,0,0,20.65,9.08c17.3,0,27.94-10.15,27.94-29.35v-19.1c0-19.21-9.61-29.36-27.13-29.36-10.79,0-16.27,3.8-21.83,9.64a.8.8,0,0,1-.52.25c-.38,0-.53-.25-.53-.68Zm192.2,4.39c14.05,0,20.27,8.45,20.27,23.11v18.84c0,14.69-6.62,23.15-20.79,23.15-13.37,0-21.55-10.8-21.55-21.83V405.19c0-11.31,8.06-20.93,22.07-20.93m-29.07,69.49c0,.65.37,1,1.17,1h4.8c.77,0,1.16-.38,1.16-1V447c0-.38.12-.66.53-.66a.66.66,0,0,1,.53.28,27.34,27.34,0,0,0,20.63,9.08c17.29,0,27.91-10.15,27.91-29.35v-19.1c0-19.21-9.6-29.36-27-29.36-10.4,0-15.84,3.23-21.43,9.09a.69.69,0,0,1-.53.26c-.38,0-.52-.26-.52-.63V347c0-.66-.37-1.05-1.16-1.05h-4.92c-.8,0-1.17.39-1.17,1.05ZM200.24,405.19c0-11.31,8.19-20.93,22-20.93,14.26,0,20.38,8.45,20.38,23.11v18.84c0,14.69-6.63,23.15-20.78,23.15-13,0-21.57-10.4-21.57-21.83ZM436,426.36c0,18.82,9.35,29.35,28.44,29.35,17.93,0,28.45-10.15,28.45-29.35v-19.1c0-19.21-10.13-29.36-28.45-29.36-17.52,0-28.44,10.15-28.44,29.36Zm7.42-19c0-14.66,6.46-23.11,21-23.11,14.17,0,21,8.45,21,23.11v18.84c0,14.69-6.5,23.15-21,23.15-14.13,0-21-8.46-21-23.15ZM50.8,488.18c.74,1,1.53.38,1.93.12,8.84-5.46,12.2-12.6,12.2-19.37,0-16.61-15.06-21.29-32.58-20.75A163.62,163.62,0,0,0,13.25,450c-4.29.63-4.94.38-5.08-2-.51-8.19,6.51-16.61,16.11-16.61h2.87c18.16,0,28.57-12.46,28.57-27a30.22,30.22,0,0,0-4-13.63,1.74,1.74,0,0,1-.27-.78c0-.4.12-.78.78-1.33a18.55,18.55,0,0,1,10.28-3.25h.64c.65,0,1-.38,1-1.16V379.6c0-.78-.39-1.18-1-1.18h-.64c-6.51,0-11.06,3.38-13.65,5.61-.66.5-1,.78-1.43.78a1.3,1.3,0,0,1-1-.4c-5.33-4.81-13-6.51-18.43-6.51C11,377.9,0,390,0,404.53A27.89,27.89,0,0,0,13.52,428a.76.76,0,0,1-.14,1.3c-9,4.81-13.51,14.28-11.16,24.28.63,3.14,2.59,3.49,8.43,2.71a169.68,169.68,0,0,1,22.19-1.93c18-.4,24.82,4.94,24.82,15.06,0,4.54-1.82,9.24-8.83,13.76-.24.27-1.17.67-.24,1.95Zm-2.21-83.54c0,11.72-8.33,21.05-21.19,21.05-11.82,0-20.26-10-20.26-21.05C7.14,393,15.05,384,27.93,384c11.82,0,20.66,8.68,20.66,20.61m463.73-27c0,.91-.26,1.18-1,1.18h-9.07c-.79,0-1.19.26-1.19,1.16v4c0,.9.4,1.15,1.19,1.15h8.94c.81,0,1.05.24,1.05,1.16v48.32c0,11.42,3.5,20.77,18.31,20.77a32.62,32.62,0,0,0,12.87-2.33,1.22,1.22,0,0,0,.89-1.55l-1.18-4a1,1,0,0,0-1.54-.67,29,29,0,0,1-10.39,2.08c-8.44,0-11.56-4.54-11.56-15.71V386.34c0-.92.26-1.16,1-1.16H540c.76,0,1.16-.25,1.16-1.15v-4c0-.9-.4-1.16-1.16-1.16H520.64c-.78,0-1-.27-1-1.18V358.57c0-.92-.52-1.17-1.44-.92l-4.54,1.28c-.9.27-1.3.55-1.3,1.45Zm49.22,2.23c0-.67-.38-1.05-1.17-1.05h-5.06c-.77,0-1.15.38-1.15,1.05V453.5c0,.62.51,1,1.29,1h4.92c.79,0,1.17-.41,1.17-1Zm0-21.17c0-.67-.38-1.05-1.17-1.05h-5.06c-.77,0-1.15.38-1.15,1.05V368c0,.63.38,1,1.15,1h5.06c.79,0,1.17-.4,1.17-1Zm24.17,50c0-14.69,6.1-24.56,21-24.56,8.7,0,13.26,2.73,17.25,10.15a1.06,1.06,0,0,0,1.56.37l4.05-2.08A1.11,1.11,0,0,0,630,391c-4-8.83-11.55-13.13-23.49-13.13-17.53,0-28.18,11.44-28.18,30.69v16.46c0,20.51,10.54,30.66,28.45,30.66,12.33,0,19.46-5.09,23.37-12.34a1,1,0,0,0-.39-1.43l-3.92-2.22a.94.94,0,0,0-1.54.4c-3.12,5.84-8.56,9.35-17.28,9.35-14.92,0-21.28-9.9-21.28-24.56ZM741.4,378.42c.65,0,1.06.4,1.06,1.18v4.81c0,.77-.41,1.18-1.06,1.18h-1.53c-13.78,0-21.83,9.7-21.83,21.67v46.49c0,.65-.4,1-1.18,1H711.8c-.78,0-1.17-.38-1.17-1V379.87c0-.67.39-1.05,1.17-1.05h4.8c.79,0,1.19.38,1.19,1.05v8.93c0,.42.1.65.5.65a.69.69,0,0,0,.52-.23c6-7.14,11.57-10.8,22-10.8Zm37.54,47.94c0,18.82,9.35,29.35,28.44,29.35,17.94,0,28.45-10.15,28.45-29.35v-19.1c0-19.21-10.13-29.36-28.45-29.36-17.54,0-28.44,10.15-28.44,29.36Zm7.41-19c0-14.66,6.49-23.11,21-23.11,14.14,0,21,8.45,21,23.11v18.84c0,14.69-6.49,23.15-21,23.15-14.15,0-21-8.46-21-23.15Zm-24.82-27.5c0-.67-.38-1.05-1.16-1.05H755.3c-.8,0-1.15.38-1.15,1.05V453.5c0,.62.51,1,1.29,1h4.93c.78,0,1.16-.41,1.16-1Zm0-21.17c0-.67-.38-1.05-1.16-1.05H755.3c-.8,0-1.15.38-1.15,1.05V368c0,.63.35,1,1.15,1h5.07c.78,0,1.16-.4,1.16-1ZM107.41,378.42c.63,0,1.06.4,1.06,1.18v4.81a1,1,0,0,1-1.06,1.18h-1.56c-13.77,0-21.84,9.7-21.84,21.67v46.49c0,.65-.36,1-1.14,1H77.8c-.78,0-1.18-.38-1.18-1V379.87c0-.67.4-1.05,1.18-1.05h4.79c.77,0,1.17.38,1.17,1.05v8.93c0,.42.13.65.52.65a.69.69,0,0,0,.52-.23c6-7.14,11.56-10.8,22-10.8Zm18.68,1.45c0-.67-.36-1.05-1.16-1.05h-5.05c-.8,0-1.18.38-1.18,1.05v46.34c0,19.64,9,29.5,26.35,29.5,10.4,0,15.59-3.77,21.19-9.63a.61.61,0,0,1,.53-.23c.36,0,.49.23.49.61v7.29c0,.65.41,1,1.19,1h4.78c.78,0,1.18-.38,1.18-1V379.87c0-.67-.4-1.05-1.18-1.05h-5.06c-.78,0-1.16.38-1.16,1.05v48.55c0,11.3-7.93,20.94-21.3,20.94-14.15,0-19.62-8.46-19.62-23.28Zm537.66,69.6c-14,0-19.35-8.83-19.35-19.37,0-9.71,5.34-19.71,19.49-19.71,11.55,0,20,7.52,20,17.65v2.21c0,11.54-8.86,19.22-20.15,19.22"/><path d="M404.29,167.31c12.35-15.12,28.69-19.8,44.13-16.79,6.42-5.29,14-11.34,23.33-18.69l1.9-1.51-.07,0c-30.63-14.22-62.77-6.54-81.17,13.14-.81.92-1.65,1.84-2.45,2.8s-1.88,2.23-2.89,3.3c1.1,1.28,7.9,9,16.94,18.13C404.09,167.55,404.21,167.42,404.29,167.31Z" style="fill:url(#linear-gradient)"/><path d="M387.17,149.47c-.15.15.08-.1,0,.05-23.68-29.56-49.56-77.7-11-119.64C347.22,54.16,323.05,94.63,315.37,131c-17.41,82.35,25.24,129.77,63,153C340.25,252.2,351.35,192.93,387.17,149.47Z" style="fill:url(#linear-gradient-2)"/><path d="M387.14,149.52l-.34.41a3.92,3.92,0,0,1,.37-.46c38.27-45.25,105.94-97.27,85.14-127C459,3.43,429.37,2.5,411.89,8c-.65.27-1.33.55-2,.84a132.56,132.56,0,0,0-33.76,21C337.58,71.82,363.46,120,387.14,149.52Z" style="fill:#d6de23"/><path d="M473.65,130.32l-1.9,1.51c-9.31,7.35-16.91,13.4-23.33,18.69,84,16.18,73.69,143.26-18.88,147.61a91.27,91.27,0,0,1-31.89-4.53c1.08.42,2.66,1,3.61,1.32,55.83,18.63,106.75-9.54,119.5-57.21C532.71,193,515.63,149.86,473.65,130.32Z" style="fill:url(#linear-gradient-3)"/><path d="M411.89,8c17.48-5.54,47.1-4.61,60.42,14.4,19.89,28.41-41.06,77.19-79.9,121,18.4-19.68,50.54-27.36,81.17-13.14l.07,0C584.74,41.62,487-23.42,411.89,8Z" style="fill:url(#linear-gradient-4)"/><path d="M387.12,149.51h0s0-.05.05-.05S387.14,149.51,387.12,149.51Zm.22,68.94a1.19,1.19,0,0,1-.1-.17c-14.94-26.48-12.31-51.05.07-68.62l.34.39a3.58,3.58,0,0,0-.48-.54h0a0,0,0,0,0,0-.05h0l-.05.05h0c-35.75,43.41-46.84,102.58-8.81,134.38.52.33,1.06.68,1.58,1a112.58,112.58,0,0,0,14.93,7.56h.05C363.67,279.76,373.09,243.45,387.34,218.45Z" style="fill:url(#linear-gradient-5)"/><path d="M458.34,212.66a48.22,48.22,0,0,0,2.15-14.56c.34,4.56-3.91,24.57-21.39,29.9-18.66,5.7-38-8-41.91-25.13-3.69,5.74-7.42,11.49-9.85,15.58C405.52,243,446.49,246.91,458.34,212.66Z" style="fill:url(#linear-gradient-6)"/><path d="M397.18,202.89c-3-12-.9-25.53,6.83-35.22-8.73-8.77-15.27-16.28-16.71-18-12.37,17.55-15,42.12-.06,68.57a1.19,1.19,0,0,0,.1.17c2.43-4.09,6.16-9.82,9.84-15.56Z" style="fill:url(#linear-gradient-7)"/><path d="M456.55,152.49c-.6-.15-1.22-.33-1.85-.5-.47-.12-.95-.27-1.44-.39s-1.09-.28-1.61-.4c-1.06-.23-2.13-.48-3.23-.68l-.45.17a363.23,363.23,0,0,0-28.2,25.65A25.14,25.14,0,0,1,457.46,184c.22.37.39.74.56,1.09s.24.42.32.64c.23.52.42,1,.65,1.56a25.84,25.84,0,0,1,1.53,10.45c0,.41,0,.84,0,1.25a49.46,49.46,0,0,1-2.15,13.65c-11.85,34.25-52.82,30.32-71,5.79-14.25,25-23.67,61.31,7.54,74.09.64.28,1.72.65,3.05,1.13a91.75,91.75,0,0,0,31.61,4.46C519,293.93,531.66,175.1,456.55,152.49Z" style="fill:url(#linear-gradient-8)"/><path d="M419.84,176.27a349.22,349.22,0,0,1,28.58-25.75c-15.44-3-31.78,1.67-44.13,16.79-.08.11-.2.24-.28.36,3.78,3.8,8,7.86,12.4,11.82A27.43,27.43,0,0,1,419.84,176.27Z" style="fill:url(#linear-gradient-9)"/><path d="M416.44,179.49c-4.48-4-8.72-8.08-12.51-11.92a.25.25,0,0,0,.08.1c-7.84,9.59-9.83,23.24-6.83,35.22a226.15,226.15,0,0,1,18-21.83A14,14,0,0,1,416.44,179.49Z" style="fill:url(#linear-gradient-10)"/><path d="M460.55,195.93a25.58,25.58,0,0,1-.83,6.68s0,0,0,0h0a25.16,25.16,0,0,1-30.8,17.8h0A25.22,25.22,0,0,1,411,189.6a24.63,24.63,0,0,1,4.14-8.53,225.89,225.89,0,0,0-18,21.82v0a0,0,0,0,1,0,0,0,0,0,0,0,0,0s0,0,0,0C401.06,220,420.44,233.7,439.1,228c16.57-5.06,21.23-23.26,21.39-29a32.26,32.26,0,0,1-.28,4.58A34.62,34.62,0,0,0,460.55,195.93Z" style="fill:url(#linear-gradient-11)"/></g></g></svg>