<svg xmlns="http://www.w3.org/2000/svg" xmlns:xlink="http://www.w3.org/1999/xlink" viewBox="0 0 230.94 169.08"><defs><clipPath id="clip-path" transform="translate(0 23.26)"><path d="M108.17,41.06c-.24.26-.47.53-.71.8s-.54.64-.82,1c.31.36,2.26,2.58,4.85,5.18a.73.73,0,0,1,.08-.09,12.73,12.73,0,0,1,12.63-4.82c1.84-1.51,4-3.25,6.68-5.34l.54-.44h0a21.87,21.87,0,0,0-9.25-2.1,19.07,19.07,0,0,0-14,5.86" style="fill:none"/></clipPath><linearGradient id="linear-gradient" x1="-166.13" y1="409.41" x2="-163.68" y2="409.41" gradientTransform="matrix(0, 7.68, 7.68, 0, -3024.79, 1307.47)" gradientUnits="userSpaceOnUse"><stop offset="0" stop-color="#6185c4"/><stop offset="0.52" stop-color="#456cab"/><stop offset="1" stop-color="#2f5998"/></linearGradient><clipPath id="clip-path-2" transform="translate(0 23.26)"><path d="M106.66,42.79h0m0,0h0s0,0,0,0h0M86.11,37.5c-5,23.57,7.23,37.14,18,43.78-10.91-9.09-7.74-26.05,2.51-38.49-6.79-8.46-14.19-22.24-3.15-34.24a55.65,55.65,0,0,0-17.4,29" style="fill:none"/></clipPath><linearGradient id="linear-gradient-2" x1="-174.99" y1="387.4" x2="-172.54" y2="387.4" gradientTransform="matrix(0, 16.88, 16.88, 0, -6446.1, 2984.03)" gradientUnits="userSpaceOnUse"><stop offset="0" stop-color="#d7df23"/><stop offset="0.2" stop-color="#bcd82a"/><stop offset="0.63" stop-color="#78c63b"/><stop offset="1" stop-color="#39b54a"/></linearGradient><clipPath id="clip-path-3" transform="translate(0 23.26)"><path d="M130.88,37.74c-2.67,2.09-4.84,3.83-6.68,5.34,24,4.63,21.1,41-5.41,42.26a26.37,26.37,0,0,1-9.12-1.3c.3.12.76.29,1,.37,16,5.35,30.56-2.72,34.21-16.37,3.42-12.79-1.47-25.14-13.49-30.74l-.54.44" style="fill:none"/></clipPath><linearGradient id="linear-gradient-3" x1="-181.68" y1="371.82" x2="-179.24" y2="371.82" gradientTransform="matrix(0, 316.02, 316.02, 0, -117372.86, 57050)" gradientUnits="userSpaceOnUse"><stop offset="0" stop-color="#ef3b29"/><stop offset="0.66" stop-color="#f57921"/><stop offset="1" stop-color="#f7941e"/></linearGradient><clipPath id="clip-path-4" transform="translate(0 23.26)"><path d="M113.74,2.3C118.75.72,127.23,1,131,6.43c5.69,8.13-11.75,22.1-22.87,34.63,5.26-5.63,14.45-7.84,23.23-3.76h0c26.25-21,11.77-37.3-6.18-37.3a29.87,29.87,0,0,0-11.5,2.3" style="fill:none"/></clipPath><linearGradient id="linear-gradient-4" x1="-165.74" y1="369.32" x2="-163.29" y2="369.32" gradientTransform="matrix(21.86, 0, 0, -21.86, 3732.28, 8095)" gradientUnits="userSpaceOnUse"><stop offset="0" stop-color="#5aade0"/><stop offset="1" stop-color="#1b74ab"/></linearGradient><clipPath id="clip-path-5" transform="translate(0 23.26)"><path d="M106.66,42.79h0Zm0,0h0c-5.22,6.34-8.6,13.84-9.23,20.88v4.57a18.83,18.83,0,0,0,6.7,13l.45.3c.46.27,1.2.7,2.08,1.15.68.35,1.43.71,2.2,1h0a11,11,0,0,1-2.21-1.19c-6.17-4.36-3.67-13.43,0-19.91l0-.1,0-.05,0,0c-4.23-7.52-3.5-14.51,0-19.52l0-.07.1.11a1.3,1.3,0,0,0-.15-.16h0Z" style="fill:none"/></clipPath><linearGradient id="linear-gradient-5" x1="-136.36" y1="423.26" x2="-133.91" y2="423.26" gradientTransform="matrix(4.36, 0, 0, -4.36, 693.29, 1930.55)" gradientUnits="userSpaceOnUse"><stop offset="0" stop-color="#27aae1"/><stop offset="1" stop-color="#1b75bc"/></linearGradient><clipPath id="clip-path-6" transform="translate(0 23.26)"><path d="M121.54,65.26c-5.35,1.63-10.9-2.28-12-7.19-1.05,1.65-2.13,3.28-2.83,4.46,5.21,7,16.94,8.14,20.32-1.66a13.61,13.61,0,0,0,.63-4c0,1.53-1.28,6.94-6.12,8.42m6.12-8.42a.61.61,0,0,0,0-.14.71.71,0,0,1,0,.14" style="fill:none"/></clipPath><linearGradient id="linear-gradient-6" x1="-157.5" y1="398.2" x2="-155.05" y2="398.2" gradientTransform="matrix(8.55, 0, 0, -8.55, 1453.77, 3492.61)" gradientUnits="userSpaceOnUse"><stop offset="0" stop-color="#f26122"/><stop offset="0.57" stop-color="#ef432b"/><stop offset="1" stop-color="#ee3130"/></linearGradient><clipPath id="clip-path-7" transform="translate(0 23.26)"><path d="M106.68,62.48l0,.05c.7-1.18,1.77-2.81,2.82-4.46a11.83,11.83,0,0,1,2-10.08c-2.5-2.51-4.38-4.66-4.79-5.14-3.54,5-4.29,12,0,19.63" style="fill:none"/></clipPath><linearGradient id="linear-gradient-7" x1="-131.66" y1="430.88" x2="-129.21" y2="430.88" gradientTransform="matrix(3.98, 0, 0, -3.98, 626.4, 1789.73)" xlink:href="#linear-gradient"/><clipPath id="clip-path-8" transform="translate(0 23.26)"><path d="M124.07,43.13A105.37,105.37,0,0,0,116,50.48a7.18,7.18,0,0,1,10.79,2.2c.06.1.11.2.16.3l.09.19a4.69,4.69,0,0,1,.18.45,7.14,7.14,0,0,1,.44,3V57a14.36,14.36,0,0,1-.63,3.91c-3.38,9.8-15.11,8.68-20.32,1.66-4.08,7.16-6.77,17.55,2.16,21.21.19.07.49.19.88.32a26.28,26.28,0,0,0,9,1.28c25.62-1.2,29.23-35.22,7.74-41.69l-.53-.14-.41-.11-.46-.12-.93-.2Z" style="fill:none"/></clipPath><linearGradient id="linear-gradient-8" x1="-198.98" y1="377.34" x2="-196.53" y2="377.34" gradientTransform="matrix(-16.44, 0, 0, 16.44, -3127.9, -6140.64)" gradientUnits="userSpaceOnUse"><stop offset="0" stop-color="#f7941e"/><stop offset="0.62" stop-color="#f37225"/><stop offset="1" stop-color="#f15a29"/></linearGradient><clipPath id="clip-path-9" transform="translate(0 23.26)"><path d="M111.57,47.9a.73.73,0,0,0-.08.09c1.08,1.09,2.28,2.25,3.55,3.39a7.08,7.08,0,0,1,1-.92,95.9,95.9,0,0,1,8.18-7.38,13.41,13.41,0,0,0-2.51-.24,12.85,12.85,0,0,0-10.12,5.06" style="fill:none"/></clipPath><linearGradient id="linear-gradient-9" x1="-150.53" y1="346.97" x2="-148.07" y2="346.97" gradientTransform="matrix(8.28, 0, 0, -8.28, 1355.24, 2920.73)" gradientUnits="userSpaceOnUse"><stop offset="0" stop-color="#da6329"/><stop offset="0.11" stop-color="#ca6333"/><stop offset="0.32" stop-color="#a2644c"/><stop offset="0.62" stop-color="#606476"/><stop offset="0.98" stop-color="#0665af"/><stop offset="1" stop-color="#0065b2"/></linearGradient><clipPath id="clip-path-10" transform="translate(0 23.26)"><path d="M111.49,48a11.68,11.68,0,0,0-2,10.08,65.76,65.76,0,0,1,5.15-6.25c.11-.15.24-.3.36-.44-1.28-1.15-2.49-2.32-3.58-3.42l0,0" style="fill:none"/></clipPath><linearGradient id="linear-gradient-10" x1="-161.01" y1="355.22" x2="-158.56" y2="355.22" gradientTransform="matrix(12.37, 0, 0, -12.37, 2088.7, 4446.46)" xlink:href="#linear-gradient-9"/><clipPath id="clip-path-11" transform="translate(0 23.26)"><path d="M109.53,58.07h0c1.1,4.91,6.65,8.82,12,7.19,4.73-1.44,6.07-6.66,6.12-8.31a13.07,13.07,0,0,1-.08,1.31,10.49,10.49,0,0,0,.09-2.18,7.07,7.07,0,0,1-.24,1.92h0a7.21,7.21,0,0,1-8.82,5.1h0a7.21,7.21,0,0,1-5.11-8.83,6.94,6.94,0,0,1,1.19-2.44,64.11,64.11,0,0,0-5.15,6.24" style="fill:none"/></clipPath><linearGradient id="linear-gradient-11" x1="-147.14" y1="390.71" x2="-144.69" y2="390.71" gradientTransform="matrix(7.9, 0, 0, -7.9, 1269.86, 3146.61)" gradientUnits="userSpaceOnUse"><stop offset="0" stop-color="#f7941e"/><stop offset="0.22" stop-color="#f47923"/><stop offset="0.69" stop-color="#f15a29"/><stop offset="1" stop-color="#f15a29"/></linearGradient></defs><g id="Layer_2" data-name="Layer 2"><g id="Layer_1-2" data-name="Layer 1"><path d="M7.69,115.2v1.69A5.45,5.45,0,0,0,2,122.59a5.7,5.7,0,0,0,5.6,5.82h.12V130h-1a4.46,4.46,0,0,0-4.45,4.59c0,.65.21.72,1.4.54s2.64-.35,4-.44v1.71a47,47,0,0,0-4.75.49c-1.61.21-2.15.11-2.33-.75a6,6,0,0,1,3.08-6.72.2.2,0,0,0,0-.36A7.69,7.69,0,0,1,0,122.56a7.32,7.32,0,0,1,7.69-7.36m27.15.54h0c0-.18-.11-.28-.32-.28h-1.4c-.21,0-.32.1-.32.28v12.81c0,5.42,2.47,8.15,7.28,8.15A7.17,7.17,0,0,0,45.93,134s.07-.07.14-.07.14.07.14.18v2c0,.18.11.29.33.29h1.33c.21,0,.32-.11.32-.29V115.74c0-.18-.11-.28-.32-.28h-1.4c-.22,0-.33.1-.33.28v13.42a5.6,5.6,0,0,1-5.88,5.78c-3.91,0-5.42-2.33-5.42-6.42Zm-5.17-.39h0c.18,0,.29.11.29.32V117c0,.21-.11.32-.29.32h-.43a5.74,5.74,0,0,0-6,6v12.85c0,.18-.1.29-.32.29h-1.4c-.22,0-.32-.11-.32-.29V115.74c0-.18.1-.28.32-.28h1.33c.21,0,.32.1.32.28v2.48c0,.11,0,.18.15.18s.1,0,.14-.07a7,7,0,0,1,6.06-3ZM7.69,130v-1.57a5.62,5.62,0,0,0,5.73-5.82,5.55,5.55,0,0,0-5.71-5.7h0V115.2h0a7.91,7.91,0,0,1,5.1,1.8.38.38,0,0,0,.29.1c.1,0,.21-.07.39-.21a5.76,5.76,0,0,1,3.77-1.54h.17c.19,0,.29.11.29.32V117c0,.22-.1.33-.29.33h-.17a5.07,5.07,0,0,0-2.84.89c-.18.15-.21.25-.21.36a.6.6,0,0,0,.06.22,8.21,8.21,0,0,1,1.12,3.76c0,4-2.79,7.38-7.7,7.46m0,6.41v-1.71l1.24-.06c4.84-.15,9,1.15,9,5.73a6.27,6.27,0,0,1-3.37,5.35c-.11.08-.33.25-.54,0l-.61-.82c-.25-.36,0-.47.07-.54,1.94-1.26,2.44-2.55,2.44-3.81,0-2.8-1.9-4.27-6.85-4.16l-1.39,0m53.49-21.18V117a5.67,5.67,0,0,0-5.85,5.77v6.17a5.92,5.92,0,0,0,5.85,6v1.75a7.52,7.52,0,0,1-5.53-2.5.17.17,0,0,0-.14-.08c-.11,0-.15.08-.15.18v10.56c0,.17-.1.28-.32.28H53.71c-.21,0-.32-.11-.32-.28V115.74c0-.18.11-.28.32-.28h1.22c.22,0,.33.1.33.28v2c0,.11,0,.18.14.18a.24.24,0,0,0,.15-.07,7.32,7.32,0,0,1,5.63-2.65m0,21.48v-1.75h.1c3.92,0,5.75-2.33,5.75-6.39v-5.2c0-4-1.69-6.39-5.64-6.39h-.21v-1.76h.39c4.85,0,7.5,2.8,7.5,8.11v5.28c0,5.31-2.94,8.11-7.71,8.11Zm20.2-21.49V117c-4,0-5.81,2.34-5.81,6.39v5.2c0,4.06,1.9,6.39,5.81,6.39v1.76c-5.28,0-7.86-2.91-7.86-8.11v-5.28c0-5.31,3-8.11,7.86-8.11m0,21.5v-1.76c4,0,5.81-2.33,5.81-6.39v-5.2c0-4-1.9-6.39-5.81-6.39V115.2c5.06,0,7.86,2.8,7.86,8.11v5.28c0,5.31-2.91,8.11-7.86,8.11m26.73-21.49V117a5.65,5.65,0,0,0-5.85,5.77v6.17a5.91,5.91,0,0,0,5.85,6v1.75a7.54,7.54,0,0,1-5.52-2.5.2.2,0,0,0-.15-.08c-.11,0-.14.08-.14.18v1.87c0,.18-.11.29-.32.29h-1.33c-.22,0-.32-.11-.32-.29v-29.5c0-.18.1-.28.32-.28H102c.22,0,.32.1.32.28v11c0,.1,0,.18.15.18a.17.17,0,0,0,.14-.08,7.15,7.15,0,0,1,5.49-2.5m0,21.48v-1.75h.11c3.91,0,5.74-2.33,5.74-6.39v-5.2c0-4-1.72-6.39-5.6-6.39h-.25v-1.76h.43c4.81,0,7.47,2.8,7.47,8.11v5.28c0,5.31-3,8.11-7.72,8.11Zm20.21-21.49V117c-4,0-5.82,2.34-5.82,6.39v5.2c0,4.06,1.9,6.39,5.82,6.39v1.76c-5.28,0-7.86-2.91-7.86-8.11v-5.28c0-5.31,3-8.11,7.86-8.11m33.51,8.51h0c0-4.06,1.69-6.79,5.82-6.79a4.68,4.68,0,0,1,4.77,2.8.28.28,0,0,0,.43.11l1.11-.57c.21-.11.14-.36.11-.43-1.12-2.44-3.19-3.63-6.5-3.63-4.84,0-7.79,3.16-7.79,8.47v4.56c0,5.67,2.91,8.47,7.87,8.47,3.4,0,5.37-1.4,6.45-3.41a.27.27,0,0,0-.11-.39l-1.07-.61a.26.26,0,0,0-.43.1,4.93,4.93,0,0,1-4.77,2.59c-4.13,0-5.89-2.73-5.89-6.79Zm-6.67-13.82h0c0-.18-.11-.28-.32-.28h-1.4c-.22,0-.33.1-.33.28v2.59c0,.18.11.29.33.29h1.4c.21,0,.32-.11.32-.29Zm0,5.85h0c0-.18-.11-.28-.32-.28h-1.4c-.22,0-.33.1-.33.28v20.35c0,.18.14.29.36.29h1.37c.21,0,.32-.11.32-.29Zm-13.6-.61h0c0,.25-.08.33-.29.33h-2.51c-.22,0-.33.07-.33.32v1.11c0,.25.11.32.33.32h2.47c.22,0,.29.08.29.32v13.35c0,3.16,1,5.75,5.06,5.75a8.87,8.87,0,0,0,3.55-.65.35.35,0,0,0,.26-.43l-.33-1.11a.29.29,0,0,0-.43-.18,8.15,8.15,0,0,1-2.87.57c-2.33,0-3.2-1.26-3.2-4.34v-13c0-.24.08-.32.3-.32h5.34c.21,0,.33-.07.33-.32v-1.11c0-.25-.12-.32-.33-.32h-5.34c-.22,0-.3-.08-.3-.33v-5.27c0-.25-.14-.33-.39-.25l-1.26.36c-.24.07-.35.14-.35.39ZM128.32,136.7v-1.76c4,0,5.81-2.33,5.81-6.39v-5.2c0-4-1.9-6.39-5.81-6.39V115.2c5.05,0,7.85,2.8,7.85,8.11v5.28c0,5.31-2.9,8.1-7.85,8.11m55.19-14.18h-.11c-4.85,0-7.25,3.34-7.25,7.18,0,4.05,2.44,6.93,7,6.93h.4V135h-.11c-3.88,0-5.35-2.45-5.35-5.35,0-2.69,1.47-5.46,5.38-5.46h.08Zm0-8.58a44,44,0,0,1-5.64,2.48.31.31,0,0,0-.14.44l.43,1a.26.26,0,0,0,.36.15,13.09,13.09,0,0,1,5-1.12Zm26.9-4h0c0-.18-.1-.28-.32-.28H208.7c-.22,0-.33.1-.33.28v2.59c0,.18.11.29.33.29h1.39c.22,0,.32-.11.32-.29Zm0,5.85h0c0-.18-.1-.28-.32-.28H208.7c-.22,0-.33.1-.33.28v20.35c0,.18.15.29.36.29h1.36c.22,0,.32-.11.32-.29Zm-5.55-.39h0c.17,0,.28.11.28.32V117c0,.21-.11.32-.28.32h-.44a5.73,5.73,0,0,0-6,6v12.85c0,.18-.11.29-.33.29h-1.4c-.21,0-.32-.11-.32-.29V115.74c0-.18.11-.28.32-.28H198c.22,0,.32.1.32.28v2.48c0,.11,0,.18.15.18a.19.19,0,0,0,.14-.07,7,7,0,0,1,6.07-3Zm18.22-.15V117c-4,0-5.81,2.34-5.81,6.39v5.2c0,4.06,1.9,6.39,5.81,6.39v1.76c-5.27,0-7.85-2.91-7.85-8.11v-5.28c0-5.31,3-8.11,7.85-8.11M191,122.52c0-4.23-1.43-7-6.74-7.32a37.66,37.66,0,0,0,8.58-5.81c.21-.21.18-.39.07-.5l-.76-.76a.34.34,0,0,0-.46,0,37.7,37.7,0,0,1-8.18,5.81v2.91h.21c4.37,0,5.27,2.76,5.27,5.27v2.33c0,.22-.07.29-.18.29a.33.33,0,0,1-.21-.11,6.87,6.87,0,0,0-5.09-2.12v1.65c3.15,0,5.45,2.11,5.45,4.88v.61a5.24,5.24,0,0,1-5.45,5.32v1.64a7.07,7.07,0,0,0,5.27-2.61.16.16,0,0,1,.14-.07c.11,0,.15.07.15.17v2c0,.18.1.29.32.29h1.29c.21,0,.32-.11.32-.29Zm32.08,14.18v-1.76c4,0,5.82-2.33,5.82-6.39v-5.2c0-4-1.9-6.39-5.82-6.39V115.2c5.07,0,7.86,2.8,7.86,8.11v5.28c0,5.31-2.9,8.11-7.86,8.11" transform="translate(0 23.26)" style="fill:#fff"/><g style="clip-path:url(#clip-path)"><rect x="109.12" y="27.84" width="19.82" height="27.52" transform="translate(42.68 165.2) rotate(-72)" style="fill:url(#linear-gradient)"/></g><g style="clip-path:url(#clip-path-2)"><rect x="55.37" y="21.54" width="77.06" height="46.76" transform="translate(22.16 143.59) rotate(-72)" style="fill:url(#linear-gradient-2)"/></g><path d="M106.66,42.8l-.1.11.1-.12c11-13,30.33-27.85,24.38-36.36C127.23,1,118.75.72,113.74,2.3l-.56.24a38.53,38.53,0,0,0-9.67,6c-11,12-3.63,25.79,3.15,34.25" transform="translate(0 23.26)" style="fill:#d7df23"/><g style="clip-path:url(#clip-path-3)"><rect x="99.62" y="31.3" width="58.75" height="64.46" transform="translate(-14.72 91.26) rotate(-28)" style="fill:url(#linear-gradient-3)"/></g><g style="clip-path:url(#clip-path-4)"><rect x="101.91" y="-11.52" width="62.02" height="64.1" transform="translate(39.86 140.89) rotate(-55)" style="fill:url(#linear-gradient-4)"/></g><g style="clip-path:url(#clip-path-5)"><rect x="97.43" y="66.04" width="11.43" height="40.95" style="fill:url(#linear-gradient-5)"/></g><g style="clip-path:url(#clip-path-6)"><rect x="106.71" y="79.96" width="20.98" height="13.97" style="fill:url(#linear-gradient-6)"/></g><g style="clip-path:url(#clip-path-7)"><rect x="102.41" y="66.11" width="9.07" height="19.68" style="fill:url(#linear-gradient-7)"/></g><g style="clip-path:url(#clip-path-8)"><rect x="96.1" y="34.65" width="55.76" height="59.28" transform="translate(22.84 183.85) rotate(-71)" style="fill:url(#linear-gradient-8)"/></g><g style="clip-path:url(#clip-path-9)"><rect x="113.35" y="40.61" width="8.98" height="13" transform="translate(66.62 186.48) rotate(-87.98)" style="fill:url(#linear-gradient-9)"/></g><g style="clip-path:url(#clip-path-10)"><rect x="106.69" y="49.66" width="10.33" height="6.71" transform="translate(54.96 186.21) rotate(-87.99)" style="fill:url(#linear-gradient-10)"/></g><g style="clip-path:url(#clip-path-11)"><rect x="107.57" y="49.28" width="22.11" height="20.16" transform="translate(-12.86 65.11) rotate(-19)" style="fill:url(#linear-gradient-11)"/></g></g></g></svg>