<svg xmlns="http://www.w3.org/2000/svg" viewBox="0 0 2934.1 545.01"><g id="Layer_2" data-name="Layer 2"><g id="Layer_1-2" data-name="Layer 1"><g id="Layer_2-2" data-name="Layer 2"><g id="svg17"><g id="Group_1154" data-name="Group 1154"><path id="Path_15" data-name="Path 15" d="M303.31,215.68A180.61,180.61,0,0,1,352.7,345.54a182.46,182.46,0,0,1-30.36,105C263,532.47,129.8,544.92,56,476.92A176.92,176.92,0,0,1,2.56,345.54,175,175,0,0,1,56.33,216.05c64.39-60,183.26-61.83,246.92-.37Zm-54.14,30.25a166.14,166.14,0,0,1,28.17,99.86,185.45,185.45,0,0,1-15,82.67,91,91,0,0,1-154,17.93,163.71,163.71,0,0,1-32.19-100.6,164.29,164.29,0,0,1,28.16-101.32,94.56,94.56,0,0,1,144.86,1.46Z" style="fill:none;stroke:#fff;stroke-linejoin:round;stroke-width:5px;fill-rule:evenodd"/><path id="Path_16" data-name="Path 16" d="M1164.05,215.93a196,196,0,0,1,19,234.86c-59.26,81.93-192.42,94.46-266.29,26.33a178.09,178.09,0,0,1-53.4-131.33A175,175,0,0,1,917.12,216.3C981.51,156.3,1100.39,154.47,1164.05,215.93Zm-54.14,30a166.14,166.14,0,0,1,28.17,99.86,185.45,185.45,0,0,1-15,82.67,91,91,0,0,1-154,17.93,163.71,163.71,0,0,1-32.19-100.6,164.29,164.29,0,0,1,28.16-101.32,94.58,94.58,0,0,1,144.86,1.46Z" style="fill:none;stroke:#fff;stroke-linejoin:round;stroke-width:5px;fill-rule:evenodd"/><path id="Path_17" data-name="Path 17" d="M2882.23,215.68a196,196,0,0,1,19,234.86C2842,532.47,2708.81,545,2634.94,476.87a178.12,178.12,0,0,1-53.44-131.33,175,175,0,0,1,53.77-129.49c64.39-60,183.26-61.83,246.92-.37Zm-54.14,30.25a166.14,166.14,0,0,1,28.17,99.86,185.73,185.73,0,0,1-15,82.67,91,91,0,0,1-154,17.93,163.79,163.79,0,0,1-32.2-100.6,164.36,164.36,0,0,1,28.17-101.32,94.6,94.6,0,0,1,144.86,1.46Z" style="fill:none;stroke:#fff;stroke-linejoin:round;stroke-width:5px;fill-rule:evenodd"/><path id="Path_18" data-name="Path 18" d="M1490,178.68h73v332h-73Z" style="fill:none;stroke:#fff;stroke-linejoin:round;stroke-width:5px;fill-rule:evenodd"/><path id="Path_19" data-name="Path 19" d="M2455,178.68h73v332h-73Z" style="fill:none;stroke:#fff;stroke-linejoin:round;stroke-width:5px;fill-rule:evenodd"/><path id="Path_20" data-name="Path 20" d="M2421,178.5v42.07c-36.35-9.14-65.37-7.71-82.64,6.59a52,52,0,0,0-17.25,32.2,123.74,123.74,0,0,0-1.11,23.4V510.68h-73V293a117.89,117.89,0,0,1,41.06-96.2C2319.16,173.4,2365.24,169.81,2421,178.5Z" style="fill:none;stroke:#fff;stroke-linejoin:round;stroke-width:5px;fill-rule:evenodd"/><path id="Path_21" data-name="Path 21" d="M1450.5,512.19l-9.12-36.94c-36.14,9.14-65,7.71-82.12-6.59a52.1,52.1,0,0,1-17.16-32.2,126.32,126.32,0,0,1-1.1-23.4V222.68h106v-43H1341V122.61c1.1-42.8-26.94-55.6-73-50.84v331.4a118.13,118.13,0,0,0,40.91,96.2c30.66,23.4,81.39,27.43,141.62,12.8Z" style="fill:none;stroke:#fff;stroke-linejoin:round;stroke-width:5px;fill-rule:evenodd"/><path id="Path_22" data-name="Path 22" d="M1882.14,502.68c-66.94,28.53-163.53,20.49-209.6-16.83-36.63-29.27-56.7-77.12-56.7-140.47a175,175,0,0,1,53.77-129.49c51.57-48.2,139.73-58.53,203.39-33.3v44.63a134.32,134.32,0,0,0-142.3,9.14c-28.92,24.14-39.5,65.55-39.13,106.83A164.82,164.82,0,0,0,1723,446.35a106.74,106.74,0,0,0,90.36,31.83,121.42,121.42,0,0,0,57.06-16.1l11.71,40.6Z" style="fill:none;stroke:#fff;stroke-linejoin:round;stroke-width:5px;fill-rule:evenodd"/><path id="Path_23" data-name="Path 23" d="M1932,230.68V187.42c97.2-29.26,147.64-69.13,181.62-113.74h59.57a278.83,278.83,0,0,1-126.44,99.13,188.84,188.84,0,0,1,85.14,16.47,101.26,101.26,0,0,1,55.54,78.65,280.89,280.89,0,0,1,2.57,46.46V514.68h-11.36c-34.75,0-55-11.72-57.92-39.93h0a138.06,138.06,0,0,1-104.8,45.8,126.81,126.81,0,0,1-87.21-27.49,93.16,93.16,0,0,1-29-67.41,98.5,98.5,0,0,1,53.86-94.15A211.53,211.53,0,0,1,2058,307.68l61,.37V287.63a75.61,75.61,0,0,0-12.1-43.44,73.36,73.36,0,0,0-29.34-24.82c-34.09-15.4-85-9.12-145.61,11.31Zm187,118h-48.23a126.54,126.54,0,0,0-78.63,20.86,62.12,62.12,0,0,0-20.13,53,55.69,55.69,0,0,0,29.63,52.31,63,63,0,0,0,27,6.59,93.21,93.21,0,0,0,85.6-55.6,70.06,70.06,0,0,0,4.76-26Z" style="fill:none;stroke:#fff;stroke-linejoin:round;stroke-width:5px;fill-rule:evenodd"/><path id="Path_24" data-name="Path 24" d="M484,46.68H459.1c-.37.26-.37.26-.73-.11h0c-.37,0-.74-.89-.74-.89H454l-.73-1h-.37l-.73-.31h0l-.37-1.69h-.36l-.37,1h0l-.36,0h-.55l-.73-.36L449,43l-.37-.37h0l-.36-.37h0l-.38-.37-.37-.36-.73-.37-.36-.37-.37-.36h0l-.37-.37h0l-.36-.37h0l-.74-.73h0l-.31-.34-.37-.37-.36-.37h0l-.75-.74h0l-1.1-1.1h0l-.73-.73v-.35a5.25,5.25,0,0,1-1.1-1.46h0a17.27,17.27,0,0,1-1.46-2.58A45.69,45.69,0,0,1,434,2.68H618.25a206.37,206.37,0,0,1,122.31,34A119.29,119.29,0,0,1,789.13,134a112.8,112.8,0,0,1-30,78.66,163.5,163.5,0,0,1-50,34A183.58,183.58,0,0,1,769,276.27a141.8,141.8,0,0,1,53.31,113.4,137.41,137.41,0,0,1-32.87,91.45c-63.92,71.38-207.87,82.38-287.37,23.19a141.85,141.85,0,0,1-53.26-79.74h0a349.84,349.84,0,0,1-9.85-80.1V86.77a91.26,91.26,0,0,1,52.9,6.59A62.55,62.55,0,0,1,515,150.43l-.37,196.85A197.44,197.44,0,0,0,539,446.77,100,100,0,0,0,589,490.3a132.09,132.09,0,0,0,117-12.06c33.87-24.87,37.16-66.57,36.79-92.2a104.22,104.22,0,0,0-40.45-87.79,125.8,125.8,0,0,0-73.6-21.57H562v-50h73.18a79.57,79.57,0,0,0,18.3-4,67.14,67.14,0,0,0,28.93-14.26,105.24,105.24,0,0,0,30-83.39c-2.93-41-26.71-79.35-115.26-79.35H484Z" style="fill:none;stroke:#fff;stroke-linejoin:round;stroke-width:5px;fill-rule:evenodd"/></g></g></g></g></g></svg>