<svg xmlns="http://www.w3.org/2000/svg" viewBox="0 0 2930.1 541.01"><g id="Layer_2" data-name="Layer 2"><g id="Layer_1-2" data-name="Layer 1"><path d="M301.31,214.26A180.61,180.61,0,0,1,350.7,344.12a182.46,182.46,0,0,1-30.36,105C261,531.05,127.8,543.5,54,475.5A176.92,176.92,0,0,1,.56,344.12,175,175,0,0,1,54.33,214.63c64.39-60,183.26-61.83,246.92-.37Zm-54.14,30a166.14,166.14,0,0,1,28.17,99.86,185.45,185.45,0,0,1-15,82.67,91,91,0,0,1-154,17.93,163.71,163.71,0,0,1-32.19-100.6A164.29,164.29,0,0,1,102.31,242.8a94.56,94.56,0,0,1,144.86,1.46Z" style="stroke:#000;stroke-miterlimit:10;fill-rule:evenodd"/><path d="M1162.05,214.26a196,196,0,0,1,19,234.86c-59.26,81.93-192.42,94.46-266.29,26.33a178.09,178.09,0,0,1-53.4-131.33,175,175,0,0,1,53.76-129.49C979.51,154.63,1098.39,152.8,1162.05,214.26Zm-54.14,30a166.14,166.14,0,0,1,28.17,99.86,185.45,185.45,0,0,1-15,82.67,91,91,0,0,1-154,17.93,163.71,163.71,0,0,1-32.19-100.6A164.29,164.29,0,0,1,963.05,242.8a94.58,94.58,0,0,1,144.86,1.46Z" style="stroke:#000;stroke-miterlimit:10;fill-rule:evenodd"/><path d="M2880.23,214.26a196,196,0,0,1,19,234.86c-59.26,81.93-192.42,94.46-266.29,26.33a178.12,178.12,0,0,1-53.44-131.33,175,175,0,0,1,53.77-129.49c64.39-60,183.26-61.83,246.92-.37Zm-54.14,30a166.14,166.14,0,0,1,28.17,99.86,185.73,185.73,0,0,1-15,82.67,91,91,0,0,1-154,17.93,163.79,163.79,0,0,1-32.2-100.6,164.36,164.36,0,0,1,28.17-101.32,94.6,94.6,0,0,1,144.86,1.46Z" style="stroke:#000;stroke-miterlimit:10;fill-rule:evenodd"/><path d="M1488.28,177.32h73.16V509.5h-73.16Z" style="stroke:#000;stroke-miterlimit:10;fill-rule:evenodd"/><path d="M2452.55,177.32h73.16V509.5h-73.16Z" style="stroke:#000;stroke-miterlimit:10;fill-rule:evenodd"/><path d="M2418.89,177.32v42.07c-36.21-9.14-65.11-7.71-82.31,6.59a52,52,0,0,0-17.19,32.2,124.57,124.57,0,0,0-1.1,23.4V509.5h-73.16V291.82a118,118,0,0,1,41-96.2C2317.19,172.22,2363.21,168.63,2418.89,177.32Z" style="stroke:#000;stroke-miterlimit:10;fill-rule:evenodd"/><path d="M1448.78,510.21l-9.14-36.94c-36.22,9.14-65.12,7.71-82.3-6.59a52.11,52.11,0,0,1-17.2-32.2,126.32,126.32,0,0,1-1.1-23.4V220.5h105.73V177.7H1339V120.63c1.1-42.8-27-55.6-73.16-50.84v331.4a118,118,0,0,0,41,96.2c30.73,23.4,81.57,27.43,141.93,12.8Z" style="stroke:#000;stroke-miterlimit:10;fill-rule:evenodd"/><path d="M1879.72,501.42c-66.94,28.53-163.53,20.49-209.6-16.83-36.63-29.27-56.7-77.12-56.7-140.47a175,175,0,0,1,53.77-129.49c51.57-48.2,139.73-58.53,203.39-33.3V226a134.32,134.32,0,0,0-142.3,9.14c-28.92,24.14-39.5,65.55-39.13,106.83a164.82,164.82,0,0,0,31.46,103.16A106.74,106.74,0,0,0,1811,476.92a121.42,121.42,0,0,0,57.06-16.1l11.71,40.6Z" style="stroke:#000;stroke-miterlimit:10;fill-rule:evenodd"/><path d="M1930.17,229.26V185.34C2027.47,156.08,2078,116.21,2112,71.6h59.63A279.07,279.07,0,0,1,2045,170.73a189.22,189.22,0,0,1,85.23,16.47,101.26,101.26,0,0,1,55.6,78.65,280.89,280.89,0,0,1,2.57,46.46V513.08h-11.34c-34.7,0-54.87-11.7-57.83-39.86a137.83,137.83,0,0,1-104.63,45.72,126.67,126.67,0,0,1-87.06-27.44,93,93,0,0,1-28.92-67.3,98.32,98.32,0,0,1,53.77-94,211.18,211.18,0,0,1,104.26-23.78l60,.37V286.33a76,76,0,0,0-12.07-43.53,73.23,73.23,0,0,0-29.26-24.87c-34-15.43-84.83-9.14-145.23,11.33Zm186.56,117.43H2068.5a126.54,126.54,0,0,0-78.63,20.86,62.12,62.12,0,0,0-20.13,53,55.69,55.69,0,0,0,29.63,52.31,63,63,0,0,0,27,6.59,93.21,93.21,0,0,0,85.6-55.6,70.06,70.06,0,0,0,4.76-26Z" style="stroke:#000;stroke-miterlimit:10;fill-rule:evenodd"/><path d="M482,45.27H457.1c-.37,0-.37,0-.73-.37-.37,0-.74,0-.74-.37h-.36c-.37,0-.37,0-.73-.36h-.37l-.73-.37h-.37l-.73-.37H452l-.73-.36h-.37l-.73-.37-.37-.36h-.36L449,42l-.36-.37h-.37l-.73-.36-.37-.37-.37-.37-.36-.36-.37-.37-.37-.36L445,39l-.36-.37-.37-.36-.37-.37-.36-.37-.74-.73-.31-.34-.37-.37-.36-.37L441,35l-1.1-1.1-.73-.73v-.35a5.25,5.25,0,0,1-1.1-1.46,16.69,16.69,0,0,1-1.46-2.57A45.68,45.68,0,0,1,432.21.68h184a207,207,0,0,1,122.53,34A119.19,119.19,0,0,1,787.4,132a112.66,112.66,0,0,1-30,78.66,163.78,163.78,0,0,1-50.12,34,184.12,184.12,0,0,1,60,29.63,141.67,141.67,0,0,1,53.4,113.4,137.21,137.21,0,0,1-32.93,91.45c-64,71.38-208.25,82.38-287.89,23.19a141.81,141.81,0,0,1-53.36-79.74,348.75,348.75,0,0,1-9.87-80.1V84.77a91.59,91.59,0,0,1,53,6.59,62.51,62.51,0,0,1,23.14,57.07l-.37,196.8a196.81,196.81,0,0,0,24.5,99.49A100.28,100.28,0,0,0,587,488.25,133,133,0,0,0,704.5,476.19c34-24.87,37.3-66.57,36.93-92.2a104.06,104.06,0,0,0-40.6-87.79,126.68,126.68,0,0,0-73.89-21.57H560v-49.4h73.16a79.57,79.57,0,0,0,18.3-4A67.1,67.1,0,0,0,680.33,207a105.29,105.29,0,0,0,30-83.4c-2.93-41-26.7-79.37-115.23-79.37H482Z" style="stroke:#000;stroke-miterlimit:10;fill-rule:evenodd"/></g></g></svg>