<svg xmlns="http://www.w3.org/2000/svg" viewBox="0 0 2929.12 540.01"><g id="Layer_2" data-name="Layer 2"><g id="svg17"><g id="Group_1154" data-name="Group 1154"><path id="Path_15" data-name="Path 15" d="M300.81,213.76A180.67,180.67,0,0,1,350.2,343.62a182.46,182.46,0,0,1-30.36,105C260.52,530.55,127.3,543,53.46,475A176.93,176.93,0,0,1,.06,343.62,175.06,175.06,0,0,1,53.83,214.13c64.39-60,183.26-61.83,246.92-.37Zm-54.14,30a166.16,166.16,0,0,1,28.17,99.86,185.43,185.43,0,0,1-15,82.67,91,91,0,0,1-154,17.93,163.69,163.69,0,0,1-32.19-100.6A164.29,164.29,0,0,1,101.81,242.3a94.58,94.58,0,0,1,144.86,1.46Z" style="fill:#fff;fill-rule:evenodd"/><path id="Path_16" data-name="Path 16" d="M1161.55,213.76a196,196,0,0,1,19,234.86c-59.26,81.93-192.42,94.46-266.29,26.33a178.09,178.09,0,0,1-53.4-131.33,175,175,0,0,1,53.76-129.49c64.39-60,183.27-61.83,246.93-.37Zm-54.14,30a166.16,166.16,0,0,1,28.17,99.86,185.57,185.57,0,0,1-15,82.67,91,91,0,0,1-154,17.93,163.69,163.69,0,0,1-32.19-100.6A164.29,164.29,0,0,1,962.55,242.3a94.61,94.61,0,0,1,144.86,1.46Z" style="fill:#fff;fill-rule:evenodd"/><path id="Path_17" data-name="Path 17" d="M2879.73,213.76a196,196,0,0,1,19,234.86c-59.26,81.93-192.42,94.46-266.29,26.33A178.07,178.07,0,0,1,2579,343.62a175,175,0,0,1,53.77-129.49c64.39-60,183.26-61.83,246.92-.37Zm-54.14,30a166.16,166.16,0,0,1,28.17,99.86,185.73,185.73,0,0,1-15,82.67,91,91,0,0,1-154,17.93,163.77,163.77,0,0,1-32.2-100.6,164.36,164.36,0,0,1,28.17-101.32,94.63,94.63,0,0,1,144.86,1.46Z" style="fill:#fff;fill-rule:evenodd"/><path id="Path_18" data-name="Path 18" d="M1487.78,176.82h73.16V509h-73.16Z" style="fill:#fff;fill-rule:evenodd"/><path id="Path_19" data-name="Path 19" d="M2452.05,176.82h73.16V509h-73.16Z" style="fill:#fff;fill-rule:evenodd"/><path id="Path_20" data-name="Path 20" d="M2418.39,176.82v42.07c-36.21-9.14-65.11-7.71-82.31,6.59a52.07,52.07,0,0,0-17.19,32.2,124.61,124.61,0,0,0-1.1,23.4V509h-73.16V291.32a118,118,0,0,1,41-96.2C2316.69,171.72,2362.71,168.13,2418.39,176.82Z" style="fill:#fff;fill-rule:evenodd"/><path id="Path_21" data-name="Path 21" d="M1448.28,509.71l-9.14-36.94c-36.22,9.14-65.12,7.71-82.3-6.59a52.06,52.06,0,0,1-17.2-32.2,126.28,126.28,0,0,1-1.1-23.4V220h105.73v-42.8H1338.54V120.13c1.1-42.8-27-55.6-73.16-50.84v331.4a118,118,0,0,0,41,96.2c30.73,23.4,81.57,27.43,141.93,12.8Z" style="fill:#fff;fill-rule:evenodd"/><path id="Path_22" data-name="Path 22" d="M1879.22,500.92c-66.94,28.53-163.53,20.49-209.6-16.83-36.63-29.27-56.7-77.12-56.7-140.47a175.06,175.06,0,0,1,53.77-129.49c51.57-48.2,139.73-58.53,203.39-33.3v44.63a134.32,134.32,0,0,0-142.3,9.14c-28.92,24.14-39.5,65.55-39.13,106.83a164.82,164.82,0,0,0,31.46,103.16,106.74,106.74,0,0,0,90.36,31.83,121.42,121.42,0,0,0,57.06-16.1l11.71,40.6Z" style="fill:#fff;fill-rule:evenodd"/><path id="Path_23" data-name="Path 23" d="M1929.67,228.76V184.84c97.3-29.26,147.79-69.13,181.8-113.74h59.63a279,279,0,0,1-126.57,99.13,189.35,189.35,0,0,1,85.23,16.47,101.28,101.28,0,0,1,55.6,78.65,280.89,280.89,0,0,1,2.57,46.46V512.58h-11.34c-34.7,0-54.87-11.7-57.83-39.86h0a137.83,137.83,0,0,1-104.63,45.72A126.61,126.61,0,0,1,1927.07,491a93,93,0,0,1-28.92-67.3,98.32,98.32,0,0,1,53.77-94,211.29,211.29,0,0,1,104.26-23.78l60,.37V285.83a76,76,0,0,0-12.07-43.53,73.23,73.23,0,0,0-29.26-24.87c-34-15.43-84.83-9.14-145.23,11.33Zm186.56,117.43H2068a126.6,126.6,0,0,0-78.63,20.86,62.13,62.13,0,0,0-20.13,53,55.69,55.69,0,0,0,29.63,52.31,62.92,62.92,0,0,0,27,6.59,93.2,93.2,0,0,0,85.6-55.6,70.07,70.07,0,0,0,4.76-26V346.19Z" style="fill:#fff;fill-rule:evenodd"/><path id="Path_24" data-name="Path 24" d="M481.47,44.77H456.6c-.37,0-.37,0-.73-.37h0c-.37,0-.74,0-.74-.37h-.36c-.37,0-.37,0-.73-.36h-.37l-.73-.37h-.37l-.73-.37h-.37l-.73-.36h-.37l-.73-.37h0l-.37-.36h-.36l-.37-.37h0l-.36-.37h-.37l-.73-.36-.37-.37-.37-.37h0l-.36-.36h0l-.37-.37-.37-.36-.73-.37-.36-.37-.37-.36h0l-.37-.37h0l-.36-.37h0l-.74-.73h0L442,36l-.37-.37-.36-.37h0l-.74-.73h0l-1.1-1.1h0l-.73-.73v-.35a5.1,5.1,0,0,1-1.1-1.46h0a16.69,16.69,0,0,1-1.46-2.57A45.67,45.67,0,0,1,431.71.18h184a207.09,207.09,0,0,1,122.53,34,119.2,119.2,0,0,1,48.66,97.3,112.66,112.66,0,0,1-30,78.66,163.75,163.75,0,0,1-50.12,34,184.12,184.12,0,0,1,60,29.63,141.67,141.67,0,0,1,53.4,113.4,137.19,137.19,0,0,1-32.93,91.45C723.22,550,579,561,499.36,501.81A141.76,141.76,0,0,1,446,422.07h0a348.75,348.75,0,0,1-9.87-80.1V84.27a91.61,91.61,0,0,1,53,6.59,62.51,62.51,0,0,1,23.14,57.07l-.37,196.8a196.81,196.81,0,0,0,24.5,99.49,100.23,100.23,0,0,0,50.13,43.53A133,133,0,0,0,704,475.69c34-24.87,37.3-66.57,36.93-92.2a104.08,104.08,0,0,0-40.6-87.79,126.68,126.68,0,0,0-73.89-21.57H559.45v-49.4h73.16a79.62,79.62,0,0,0,18.3-4,67.1,67.1,0,0,0,28.92-14.26,105.29,105.29,0,0,0,30-83.4c-2.93-41-26.7-79.37-115.23-79.37H481.47Z" style="fill:#fff;fill-rule:evenodd"/></g></g></g></svg>