<svg xmlns="http://www.w3.org/2000/svg" xmlns:xlink="http://www.w3.org/1999/xlink" viewBox="0 0 117.21 129.03"><defs><clipPath id="clip-path" transform="translate(25.21 23.26)"><path d="M23.21,41.06c-.24.26-.48.53-.71.8s-.54.64-.82,1c.31.36,2.26,2.58,4.84,5.18l.09-.09a12.71,12.71,0,0,1,12.62-4.82c1.85-1.51,4-3.25,6.69-5.34l.53-.44h0a21.9,21.9,0,0,0-9.25-2.1,19.07,19.07,0,0,0-14,5.86" style="fill:none"/></clipPath><linearGradient id="linear-gradient" x1="-251.09" y1="409.41" x2="-248.64" y2="409.41" gradientTransform="matrix(0, 7.68, 7.68, 0, -3109.74, 1959.9)" gradientUnits="userSpaceOnUse"><stop offset="0" stop-color="#6185c4"/><stop offset="0.52" stop-color="#456cab"/><stop offset="1" stop-color="#2f5998"/></linearGradient><clipPath id="clip-path-2" transform="translate(25.21 23.26)"><path d="M21.7,42.79h0m0,0h0s0,0,0,0h0M1.15,37.5c-5,23.57,7.23,37.14,18,43.78-10.92-9.09-7.75-26.05,2.5-38.49C14.91,34.33,7.51,20.55,18.55,8.55a55.65,55.65,0,0,0-17.4,29" style="fill:none"/></clipPath><linearGradient id="linear-gradient-2" x1="-259.95" y1="387.4" x2="-257.5" y2="387.4" gradientTransform="matrix(0, 16.88, 16.88, 0, -6531.03, 4418.35)" gradientUnits="userSpaceOnUse"><stop offset="0" stop-color="#d7df23"/><stop offset="0.2" stop-color="#bcd82a"/><stop offset="0.63" stop-color="#78c63b"/><stop offset="1" stop-color="#39b54a"/></linearGradient><clipPath id="clip-path-3" transform="translate(25.21 23.26)"><path d="M45.92,37.74c-2.67,2.09-4.84,3.83-6.69,5.34,24.06,4.63,21.1,41-5.4,42.26A26.34,26.34,0,0,1,24.71,84c.3.12.76.29,1,.37C41.72,89.76,56.3,81.69,60,68c3.41-12.79-1.48-25.14-13.5-30.74l-.53.44" style="fill:none"/></clipPath><linearGradient id="linear-gradient-3" x1="-266.64" y1="371.82" x2="-264.2" y2="371.82" gradientTransform="matrix(0, 316.02, 316.02, 0, -117457.9, 83899.93)" gradientUnits="userSpaceOnUse"><stop offset="0" stop-color="#ef3b29"/><stop offset="0.66" stop-color="#f57921"/><stop offset="1" stop-color="#f7941e"/></linearGradient><clipPath id="clip-path-4" transform="translate(25.21 23.26)"><path d="M28.78,2.3C33.78.72,42.26,1,46.08,6.43c5.69,8.13-11.75,22.1-22.87,34.63,5.26-5.63,14.45-7.84,23.23-3.76h0C72.71,16.34,58.22,0,40.28,0a29.87,29.87,0,0,0-11.5,2.3" style="fill:none"/></clipPath><linearGradient id="linear-gradient-4" x1="-250.7" y1="369.32" x2="-248.25" y2="369.32" gradientTransform="matrix(21.86, 0, 0, -21.86, 5504.85, 8095.04)" gradientUnits="userSpaceOnUse"><stop offset="0" stop-color="#5aade0"/><stop offset="1" stop-color="#1b74ab"/></linearGradient><clipPath id="clip-path-5" transform="translate(25.21 23.26)"><path d="M21.69,42.79Zm0,0h0c-5.21,6.34-8.59,13.84-9.22,20.88v4.57a18.75,18.75,0,0,0,6.7,13l.45.3c.45.27,1.2.7,2.07,1.15.68.35,1.44.71,2.2,1h0a11.07,11.07,0,0,1-2.22-1.19c-6.17-4.36-3.66-13.43,0-19.91l.06-.1,0-.05,0,0c-4.22-7.52-3.49-14.51,0-19.52l.06-.07.09.11-.14-.16h0Z" style="fill:none"/></clipPath><linearGradient id="linear-gradient-5" x1="-221.32" y1="423.26" x2="-218.87" y2="423.26" gradientTransform="matrix(4.36, 0, 0, -4.36, 1003.69, 1930.55)" gradientUnits="userSpaceOnUse"><stop offset="0" stop-color="#27aae1"/><stop offset="1" stop-color="#1b75bc"/></linearGradient><clipPath id="clip-path-6" transform="translate(25.21 23.26)"><path d="M36.57,65.26c-5.35,1.63-10.89-2.28-12-7.19-1.06,1.65-2.13,3.28-2.83,4.46,5.21,7,16.93,8.14,20.32-1.66a13.94,13.94,0,0,0,.63-4c0,1.53-1.28,6.94-6.13,8.42m6.13-8.42c0-.05,0-.1,0-.14s0,.1,0,.14" style="fill:none"/></clipPath><linearGradient id="linear-gradient-6" x1="-242.47" y1="398.2" x2="-240.01" y2="398.2" gradientTransform="matrix(8.55, 0, 0, -8.55, 2120.67, 3492.61)" gradientUnits="userSpaceOnUse"><stop offset="0" stop-color="#f26122"/><stop offset="0.57" stop-color="#ef432b"/><stop offset="1" stop-color="#ee3130"/></linearGradient><clipPath id="clip-path-7" transform="translate(25.21 23.26)"><path d="M21.72,62.48l0,.05c.7-1.18,1.77-2.81,2.82-4.46A11.83,11.83,0,0,1,26.52,48c-2.49-2.51-4.37-4.66-4.78-5.14-3.54,5-4.29,12,0,19.63" style="fill:none"/></clipPath><linearGradient id="linear-gradient-7" x1="-216.62" y1="430.88" x2="-214.17" y2="430.88" gradientTransform="matrix(3.98, 0, 0, -3.98, 904.58, 1789.73)" xlink:href="#linear-gradient"/><clipPath id="clip-path-8" transform="translate(25.21 23.26)"><path d="M39.11,43.13A106.6,106.6,0,0,0,31,50.48a7.19,7.19,0,0,1,10.8,2.2c.06.1.1.2.16.3a1.11,1.11,0,0,0,.09.19q.09.21.18.45a7.14,7.14,0,0,1,.44,3c0,.12,0,.24,0,.35a14,14,0,0,1-.62,3.91c-3.39,9.8-15.11,8.68-20.32,1.66C17.67,69.69,15,80.08,23.91,83.74l.87.32a26.38,26.38,0,0,0,9,1.28c25.61-1.2,29.23-35.22,7.74-41.69L41,43.51l-.41-.11c-.15,0-.3-.08-.46-.12l-.92-.2Z" style="fill:none"/></clipPath><linearGradient id="linear-gradient-8" x1="-283.94" y1="377.34" x2="-281.49" y2="377.34" gradientTransform="matrix(-16.44, 0, 0, 16.44, -4609.94, -6140.69)" gradientUnits="userSpaceOnUse"><stop offset="0" stop-color="#f7941e"/><stop offset="0.62" stop-color="#f37225"/><stop offset="1" stop-color="#f15a29"/></linearGradient><clipPath id="clip-path-9" transform="translate(25.21 23.26)"><path d="M26.61,47.9l-.09.09c1.08,1.09,2.29,2.25,3.56,3.39a7,7,0,0,1,1-.92,99.1,99.1,0,0,1,8.18-7.38,13.26,13.26,0,0,0-2.51-.24A12.84,12.84,0,0,0,26.61,47.9" style="fill:none"/></clipPath><linearGradient id="linear-gradient-9" x1="-235.49" y1="346.97" x2="-233.04" y2="346.97" gradientTransform="matrix(8.28, 0, 0, -8.28, 1974.02, 2920.54)" gradientUnits="userSpaceOnUse"><stop offset="0" stop-color="#da6329"/><stop offset="0.11" stop-color="#ca6333"/><stop offset="0.32" stop-color="#a2644c"/><stop offset="0.62" stop-color="#606476"/><stop offset="0.98" stop-color="#0665af"/><stop offset="1" stop-color="#0065b2"/></linearGradient><clipPath id="clip-path-10" transform="translate(25.21 23.26)"><path d="M26.52,48a11.68,11.68,0,0,0-1.95,10.08,65.76,65.76,0,0,1,5.15-6.25,4.94,4.94,0,0,1,.36-.44c-1.29-1.15-2.5-2.32-3.58-3.42,0,0,0,0,0,0" style="fill:none"/></clipPath><linearGradient id="linear-gradient-10" x1="-245.97" y1="355.22" x2="-243.52" y2="355.22" gradientTransform="matrix(12.37, 0, 0, -12.37, 3054.62, 4446.37)" xlink:href="#linear-gradient-9"/><clipPath id="clip-path-11" transform="translate(25.21 23.26)"><path d="M24.57,58.07h0c1.1,4.91,6.64,8.82,12,7.19,4.74-1.44,6.08-6.66,6.12-8.31a10.48,10.48,0,0,1-.07,1.31,10.49,10.49,0,0,0,.09-2.18A7.48,7.48,0,0,1,42.47,58h0a7.2,7.2,0,0,1-8.81,5.1h0a7.21,7.21,0,0,1-5.11-8.83,7.1,7.1,0,0,1,1.18-2.44,65.55,65.55,0,0,0-5.14,6.24" style="fill:none"/></clipPath><linearGradient id="linear-gradient-11" x1="-232.1" y1="390.71" x2="-229.65" y2="390.71" gradientTransform="matrix(7.9, 0, 0, -7.9, 1856.25, 3146.61)" gradientUnits="userSpaceOnUse"><stop offset="0" stop-color="#f7941e"/><stop offset="0.22" stop-color="#f47923"/><stop offset="0.69" stop-color="#f15a29"/><stop offset="1" stop-color="#f15a29"/></linearGradient></defs><g id="Layer_2" data-name="Layer 2"><g id="Layer_1-2" data-name="Layer 1"><g style="clip-path:url(#clip-path)"><rect x="24.15" y="27.84" width="19.82" height="27.52" transform="translate(9.19 84.4) rotate(-72)" style="fill:url(#linear-gradient)"/></g><g style="clip-path:url(#clip-path-2)"><rect x="-29.6" y="21.54" width="77.06" height="46.76" transform="translate(-11.34 62.79) rotate(-72)" style="fill:url(#linear-gradient-2)"/></g><path d="M21.7,42.8l-.1.11.1-.12c11-13,30.33-27.85,24.38-36.36C42.26,1,33.79.72,28.78,2.3l-.57.24a38.47,38.47,0,0,0-9.66,6c-11,12-3.64,25.79,3.15,34.25" transform="translate(25.21 23.26)" style="fill:#d7df23"/><g style="clip-path:url(#clip-path-3)"><rect x="14.66" y="31.3" width="58.75" height="64.46" transform="translate(0.54 51.37) rotate(-28)" style="fill:url(#linear-gradient-3)"/></g><g style="clip-path:url(#clip-path-4)"><rect x="16.94" y="-11.52" width="62.02" height="64.1" transform="translate(28.84 71.3) rotate(-55)" style="fill:url(#linear-gradient-4)"/></g><g style="clip-path:url(#clip-path-5)"><rect x="37.68" y="66.04" width="11.43" height="40.95" style="fill:url(#linear-gradient-5)"/></g><g style="clip-path:url(#clip-path-6)"><rect x="46.96" y="79.96" width="20.98" height="13.97" style="fill:url(#linear-gradient-6)"/></g><g style="clip-path:url(#clip-path-7)"><rect x="42.66" y="66.11" width="9.07" height="19.68" style="fill:url(#linear-gradient-7)"/></g><g style="clip-path:url(#clip-path-8)"><rect x="11.14" y="34.65" width="55.76" height="59.28" transform="translate(-9.26 103.51) rotate(-71)" style="fill:url(#linear-gradient-8)"/></g><g style="clip-path:url(#clip-path-9)"><rect x="28.39" y="40.61" width="8.98" height="13" transform="translate(9.85 101.57) rotate(-87.98)" style="fill:url(#linear-gradient-9)"/></g><g style="clip-path:url(#clip-path-10)"><rect x="21.73" y="49.66" width="10.33" height="6.71" transform="translate(-1.82 101.3) rotate(-87.99)" style="fill:url(#linear-gradient-10)"/></g><g style="clip-path:url(#clip-path-11)"><rect x="22.61" y="49.28" width="22.11" height="20.16" transform="translate(7.72 37.45) rotate(-19)" style="fill:url(#linear-gradient-11)"/></g></g></g></svg>