<svg xmlns="http://www.w3.org/2000/svg" xmlns:xlink="http://www.w3.org/1999/xlink" viewBox="0 0 213.13 300.72"><defs><linearGradient id="linear-gradient" x1="1350.06" y1="-1167.27" x2="1425.71" y2="-1167.27" gradientTransform="translate(-1574.38 798.73) rotate(18.94)" gradientUnits="userSpaceOnUse"><stop offset="0" stop-color="#6184c3"/><stop offset="1" stop-color="#2e5997"/></linearGradient><linearGradient id="linear-gradient-2" x1="1275.11" y1="-1139.56" x2="1385.5" y2="-1139.56" gradientTransform="translate(-1574.38 798.73) rotate(18.94)" gradientUnits="userSpaceOnUse"><stop offset="0" stop-color="#d6de23"/><stop offset="1" stop-color="#37b34a"/></linearGradient><linearGradient id="linear-gradient-3" x1="1360.91" y1="-1171.52" x2="1472.5" y2="-1066.03" gradientTransform="translate(-1574.38 798.73) rotate(18.94)" gradientUnits="userSpaceOnUse"><stop offset="0" stop-color="#ee3b29"/><stop offset="1" stop-color="#f6921e"/></linearGradient><linearGradient id="linear-gradient-4" x1="1385.81" y1="-1260.35" x2="1406.15" y2="-1335.73" gradientTransform="translate(-1574.38 798.73) rotate(18.94)" gradientUnits="userSpaceOnUse"><stop offset="0" stop-color="#5aacdf"/><stop offset="1" stop-color="#1a74ab"/></linearGradient><linearGradient id="linear-gradient-5" x1="43.19" y1="220.99" x2="83.51" y2="220.99" gradientUnits="userSpaceOnUse"><stop offset="0" stop-color="#26a9e0"/><stop offset="1" stop-color="#1b75bb"/></linearGradient><linearGradient id="linear-gradient-6" x1="75.98" y1="217.85" x2="149.15" y2="217.85" gradientUnits="userSpaceOnUse"><stop offset="0" stop-color="#f06022"/><stop offset="0.59" stop-color="#ee412b"/><stop offset="1" stop-color="#ed3030"/></linearGradient><linearGradient id="linear-gradient-7" x1="65.64" y1="184.08" x2="92.65" y2="184.08" gradientTransform="matrix(1, 0, 0, 1, 0, 0)" xlink:href="#linear-gradient"/><linearGradient id="linear-gradient-8" x1="148.6" y1="184.9" x2="108.77" y2="298.37" gradientUnits="userSpaceOnUse"><stop offset="0" stop-color="#f6921e"/><stop offset="1" stop-color="#f05a28"/></linearGradient><linearGradient id="linear-gradient-9" x1="113.96" y1="203.08" x2="115.39" y2="133.07" gradientUnits="userSpaceOnUse"><stop offset="0" stop-color="#d96228"/><stop offset="1" stop-color="#0065b1"/></linearGradient><linearGradient id="linear-gradient-10" x1="94.41" y1="204.19" x2="96.22" y2="115.48" xlink:href="#linear-gradient-9"/><linearGradient id="linear-gradient-11" x1="84.26" y1="215.78" x2="135.66" y2="197.46" gradientUnits="userSpaceOnUse"><stop offset="0" stop-color="#f6921e"/><stop offset="0.1" stop-color="#f58420"/><stop offset="0.32" stop-color="#f26d25"/><stop offset="0.52" stop-color="#f15f27"/><stop offset="0.69" stop-color="#f05a28"/></linearGradient></defs><g id="Layer_2" data-name="Layer 2"><g id="svg17"><path d="M92.93,167.31c12.35-15.12,28.69-19.8,44.14-16.79,6.41-5.29,14-11.34,23.32-18.69.65-.5,1.26-1,1.9-1.51l-.06,0c-30.64-14.22-62.78-6.54-81.18,13.14-.81.92-1.65,1.84-2.44,2.8s-1.89,2.23-2.9,3.3c1.1,1.28,7.9,9,16.94,18.13C92.73,167.55,92.85,167.42,92.93,167.31Z" style="fill:url(#linear-gradient)"/><path d="M75.81,149.47c-.15.15.08-.1,0,.05C52.1,120,26.22,71.82,64.79,29.88,35.86,54.16,11.69,94.63,4,131-13.4,213.35,29.25,260.77,67,284,28.89,252.2,40,192.93,75.81,149.47Z" style="fill:url(#linear-gradient-2)"/><path d="M75.79,149.52l-.35.41a3.92,3.92,0,0,1,.37-.46c38.27-45.25,105.94-97.27,85.14-127C147.63,3.43,118,2.5,100.53,8c-.65.27-1.33.55-2,.84a132.56,132.56,0,0,0-33.76,21C26.22,71.82,52.1,120,75.79,149.52Z" style="fill:#d6de23"/><path d="M162.29,130.32c-.64.51-1.25,1-1.9,1.51-9.31,7.35-16.91,13.4-23.32,18.69,84,16.18,73.68,143.26-18.88,147.61a91.33,91.33,0,0,1-31.9-4.53c1.08.42,2.66,1,3.61,1.32,55.83,18.63,106.75-9.54,119.5-57.21C221.35,193,204.28,149.86,162.29,130.32Z" style="fill:url(#linear-gradient-3)"/><path d="M100.53,8C118,2.5,147.63,3.43,161,22.44c19.9,28.41-41.06,77.19-79.9,121,18.4-19.68,50.54-27.36,81.18-13.14l.06,0C273.39,41.62,175.65-23.42,100.53,8Z" style="fill:url(#linear-gradient-4)"/><path d="M75.76,149.51h0s0-.05,0-.05S75.79,149.51,75.76,149.51ZM76,218.45a1.19,1.19,0,0,1-.1-.17c-14.94-26.48-12.31-51.05.07-68.62l.34.39a3.58,3.58,0,0,0-.48-.54h0s0,0,0-.05h0s0,0,0,.05h0C40,192.93,28.92,252.1,67,283.9c.52.33,1.06.68,1.58,1a113.22,113.22,0,0,0,14.93,7.56h.05C52.31,279.76,61.73,243.45,76,218.45Z" style="fill:url(#linear-gradient-5)"/><path d="M147,212.66a48.22,48.22,0,0,0,2.15-14.56c.34,4.56-3.91,24.57-21.38,29.9-18.67,5.7-38-8-41.92-25.13-3.69,5.74-7.41,11.49-9.85,15.58C94.17,243,135.13,246.91,147,212.66Z" style="fill:url(#linear-gradient-6)"/><path d="M85.82,202.89c-3-12-.9-25.53,6.83-35.22-8.73-8.77-15.27-16.28-16.71-18-12.37,17.55-15,42.12-.06,68.57a1.19,1.19,0,0,0,.1.17c2.44-4.09,6.16-9.82,9.84-15.56Z" style="fill:url(#linear-gradient-7)"/><path d="M145.19,152.49c-.6-.15-1.22-.33-1.85-.5-.47-.12-1-.27-1.44-.39s-1.09-.28-1.61-.4c-1.06-.23-2.13-.48-3.22-.68l-.45.17a362.34,362.34,0,0,0-28.21,25.65A25.14,25.14,0,0,1,146.1,184c.22.37.39.74.56,1.09a6.36,6.36,0,0,1,.32.64c.24.52.42,1,.65,1.56a25.67,25.67,0,0,1,1.53,10.45c0,.41,0,.84,0,1.25A49.46,49.46,0,0,1,147,212.66c-11.85,34.25-52.81,30.32-71,5.79-14.25,25-23.67,61.31,7.54,74.09.64.28,1.72.65,3,1.13a91.77,91.77,0,0,0,31.62,4.46C207.65,293.93,220.3,175.1,145.19,152.49Z" style="fill:url(#linear-gradient-8)"/><path d="M108.48,176.27a347.93,347.93,0,0,1,28.59-25.75c-15.45-3-31.79,1.67-44.14,16.79-.08.11-.2.24-.28.36,3.78,3.8,8,7.86,12.4,11.82A28.14,28.14,0,0,1,108.48,176.27Z" style="fill:url(#linear-gradient-9)"/><path d="M105.09,179.49c-4.49-4-8.73-8.08-12.52-11.92a.39.39,0,0,0,.08.1c-7.84,9.59-9.83,23.24-6.83,35.22a226.15,226.15,0,0,1,18-21.83A13.07,13.07,0,0,1,105.09,179.49Z" style="fill:url(#linear-gradient-10)"/><path d="M149.19,195.93a25.58,25.58,0,0,1-.83,6.68s0,0,0,0h0a25.16,25.16,0,0,1-30.8,17.8h-.05A25.23,25.23,0,0,1,99.65,189.6a24.63,24.63,0,0,1,4.14-8.53,227.37,227.37,0,0,0-18,21.82v0a0,0,0,0,1,0,0,0,0,0,0,0,0,0s0,0,0,0C89.71,220,109.08,233.7,127.75,228c16.56-5.06,21.22-23.26,21.38-29a32.26,32.26,0,0,1-.28,4.58A34.62,34.62,0,0,0,149.19,195.93Z" style="fill:url(#linear-gradient-11)"/></g></g></svg>