<svg xmlns="http://www.w3.org/2000/svg" viewBox="0 0 166.67 166.67"><g id="Layer_2" data-name="Layer 2"><g id="Layer_1-2" data-name="Layer 1"><rect width="166.67" height="166.67" style="fill:#cddb79"/><circle cx="25.8" cy="77.72" r="11.71" style="fill:#a3b815"/><circle cx="25.8" cy="77.72" r="9.74" transform="translate(-47.4 41.01) rotate(-45)" style="fill:#fff"/><path d="M27.48,77.72A1.68,1.68,0,1,0,25.8,79.4,1.68,1.68,0,0,0,27.48,77.72Z" style="fill:#083e56"/><circle cx="141.85" cy="77.72" r="10.73" transform="translate(-14.56 36.5) rotate(-13.95)" style="fill:#a3b815"/><circle cx="141.85" cy="77.72" r="8.93" style="fill:#fff"/><path d="M143.38,77.72a1.53,1.53,0,1,0-1.53,1.54A1.54,1.54,0,0,0,143.38,77.72Z" style="fill:#083e56"/><path d="M30.63,100.66a.79.79,0,0,1-.4-1.47c1.08-.64,27.48-15.55,101.92-2.06a.78.78,0,0,1,.63.91.81.81,0,0,1-.91.64C58,85.3,31.29,100.39,31,100.55A.86.86,0,0,1,30.63,100.66Z" style="fill:#083e56"/><path d="M124.08,95.75h0l-6.08-13-8.76,2.56-.51,8.29.15,0C113.71,94.19,118.76,94.89,124.08,95.75Z" style="fill:#fff"/></g></g></svg>