<svg xmlns="http://www.w3.org/2000/svg" viewBox="0 0 166.67 166.67"><g id="Layer_2" data-name="Layer 2"><g id="Layer_1-2" data-name="Layer 1"><rect width="166.67" height="166.67" style="fill:#f6c358"/><ellipse cx="43.16" cy="61.59" rx="28.24" ry="29.45" style="fill:#f4a540"/><circle cx="43.16" cy="61.59" r="27.04" transform="translate(-26.7 89.45) rotate(-76.72)" style="fill:#ededed"/><circle cx="43.16" cy="61.59" r="19.03" style="fill:#2dacb5"/><circle cx="43.16" cy="61.59" r="9.82" style="fill:#083e56"/><ellipse cx="35.5" cy="56.84" rx="10.81" ry="8.47" transform="translate(-31.51 56.06) rotate(-57.34)" style="fill:#ededed"/><ellipse cx="126.96" cy="61.59" rx="24.79" ry="25.84" style="fill:#f4a540"/><circle cx="126.96" cy="61.59" r="23.73" transform="translate(45.96 177.15) rotate(-80.85)" style="fill:#ededed"/><circle cx="126.96" cy="61.59" r="16.7" style="fill:#2dacb5"/><circle cx="126.96" cy="61.59" r="8.61" transform="translate(-6.37 107.82) rotate(-45)" style="fill:#083e56"/><path d="M114,53.41c2.83-4.41,7.92-6.19,11.38-4s4,7.59,1.14,12-7.93,6.19-11.38,4S111.15,57.82,114,53.41Z" style="fill:#ededed"/><path d="M135.58,107.17c0-9-22.62-5.42-50.52-5.42s-50.51-3.6-50.51,5.42,22.61,27.35,50.51,27.35S135.58,116.19,135.58,107.17Z" style="fill:#083e56"/><path d="M59.11,101.14l7.48,11.06,4.82-10.68,5.71,12.41,7.94-12.18C75.57,101.75,66.7,101.33,59.11,101.14Z" style="fill:#ededed"/><path d="M53.86,117.78,59,101.14a120.37,120.37,0,0,0-15.22.28Z" style="fill:#ededed"/><path d="M105.57,101.3l8.49,15,6.27-15.22C116.07,101,111.08,101.12,105.57,101.3Z" style="fill:#ededed"/><path d="M94.26,101.63l4.87,12.14,6.44-12.47c-6.27.2-13.2.45-20.51.45l5,10.45Z" style="fill:#ededed"/><path d="M61.45,130.16a66.13,66.13,0,0,0,47.23,0c-5.13-5.62-13.79-9.31-23.62-9.31S66.58,124.54,61.45,130.16Z" style="fill:#bf3421"/></g></g></svg>