<svg xmlns="http://www.w3.org/2000/svg" viewBox="0 0 166.67 166.67"><g id="Layer_2" data-name="Layer 2"><g id="Layer_1-2" data-name="Layer 1"><rect width="166.67" height="166.67" style="fill:#8b61a1"/><ellipse cx="52.57" cy="46.62" rx="23.88" ry="24.9" style="fill:#a08fbb"/><circle cx="52.57" cy="46.62" r="22.87" style="fill:#ededed"/><circle cx="52.57" cy="46.62" r="16.09" style="fill:#f6c358"/><circle cx="52.57" cy="46.62" r="8.3" transform="translate(-4.85 87.12) rotate(-76.77)" style="fill:#124050"/><path d="M40.06,38.74c2.72-4.25,7.63-6,11-3.83s3.82,7.31,1.1,11.56-7.64,6-11,3.83S37.33,43,40.06,38.74Z" style="fill:#ededed"/><ellipse cx="105.36" cy="46.62" rx="23.88" ry="24.9" style="fill:#a08fbb"/><circle cx="105.36" cy="46.62" r="22.87" style="fill:#ededed"/><circle cx="105.36" cy="46.62" r="16.09" style="fill:#f6c358"/><circle cx="105.36" cy="46.62" r="8.3" transform="translate(-2.11 88.15) rotate(-45)" style="fill:#124050"/><path d="M92.85,38.74c2.72-4.25,7.63-6,11-3.83s3.82,7.31,1.1,11.56-7.64,6-11,3.83S90.12,43,92.85,38.74Z" style="fill:#ededed"/><path d="M142.74,98.4c.89-14.34-24.58-2.78-60.25-2.78S23.9,79.45,23.9,98.4s22.19,47.06,60.74,46.54C131.43,144.3,140.9,127.9,142.74,98.4Z" style="fill:#083e56"/><path d="M86,126.27c-14.82,0-28.23,3.39-37.94,8.87,9.62,6,21.93,10,36.63,9.8,19.39-.27,32.36-3.25,41.05-8.74C115.88,130.1,101.71,126.27,86,126.27Z" style="fill:#bf3421"/><path d="M63.18,142c1.08-5.59-1.68-16.29-6-17.37s-12,8.48-12.07,8.55A62.2,62.2,0,0,0,63.18,142Z" style="fill:#ededed"/><path d="M114.48,122.06c-6.31,2.63-.82,19.34-.82,19.34h0c8.73-2.5,14.89-6.32,19.22-11.37C132.74,129.91,120.75,119.45,114.48,122.06Z" style="fill:#ededed"/></g></g></svg>