<svg xmlns="http://www.w3.org/2000/svg" viewBox="0 0 166.67 166.67"><g id="Layer_2" data-name="Layer 2"><g id="Layer_1-2" data-name="Layer 1"><rect width="166.67" height="166.67" style="fill:#25b3b4"/><circle cx="45.66" cy="70.63" r="32.02" style="fill:#15a6ab"/><circle cx="45.66" cy="70.63" r="27.14" transform="translate(-36.57 52.97) rotate(-45)" style="fill:#fff"/><path d="M49.54,70.63a3.88,3.88,0,1,0-3.88,3.87A3.88,3.88,0,0,0,49.54,70.63Z" style="fill:#083e56"/><circle cx="122.52" cy="70.63" r="30.51" transform="translate(25.95 173.94) rotate(-76.89)" style="fill:#15a6ab"/><circle cx="122.52" cy="70.63" r="25.85" style="fill:#fff"/><circle cx="122.52" cy="70.63" r="3.69" style="fill:#083e56"/><path d="M45.09,116.13s5,1.53,12.42,3.42l6,1.41c2.11.47,4.36.87,6.65,1.32s4.7.7,7.11,1,4.88.53,7.33.62a63.82,63.82,0,0,0,7.31.09c2.4-.1,4.77-.22,7-.52s4.46-.65,6.53-1.11,4-1,5.79-1.54,3.38-1.19,4.86-1.68l3.71-1.56c2-1,3.26-1.49,3.26-1.49l.05,0a.2.2,0,0,1,.2.34l-2.89,2.09c-.94.63-2.13,1.33-3.47,2.17s-2.94,1.64-4.74,2.37A55,55,0,0,1,99.55,127a61.24,61.24,0,0,1-7.44.91,68.84,68.84,0,0,1-7.74.07,94.5,94.5,0,0,1-27.71-6.15,88.86,88.86,0,0,1-11.77-5.36.19.19,0,0,1-.07-.27.18.18,0,0,1,.23-.09Z" style="fill:#083e56"/><path d="M57.51,119.55l6,1.41.38.07c-1.2-4.36-5.62-9.53-5.62-9.53-2.53,1.07-5.45,6.81-5.45,6.81C54.22,118.7,55.8,119.11,57.51,119.55Z" style="fill:#fff"/><path d="M105.45,122.41c2-.5,4-1,5.79-1.54.56-.16,1.06-.35,1.58-.53-.64-1.2-3.1-5.58-5.28-6.5,0,0-4.2,4.92-5.52,9.21C103.19,122.86,104.34,122.65,105.45,122.41Z" style="fill:#fff"/></g></g></svg>