<svg xmlns="http://www.w3.org/2000/svg" viewBox="0 0 166.67 166.67"><g id="Layer_2" data-name="Layer 2"><g id="Layer_1-2" data-name="Layer 1"><rect width="166.67" height="166.67" style="fill:#056f97"/><circle cx="83.33" cy="51.22" r="23.43" style="fill:#fff"/><circle cx="83.33" cy="51.22" r="14.73" style="fill:#6fbfe4"/><circle cx="83.33" cy="51.22" r="6.28" style="fill:#083e56"/><path d="M83.59,41.16c-2.37-2.67-7-2.45-10.31.49s-4.11,7.49-1.74,10.17,7,2.45,10.3-.49S86,43.84,83.59,41.16Z" style="fill:#fff"/><path d="M129.45,101.5c0-29.85-42.49,8.94-92.24-1.08,0,0,10.77,28.75,36.17,38.46C73.38,138.88,129.45,131.35,129.45,101.5Z" style="fill:#083e56"/><path d="M45.59,101.67h0l1.57,16,24.48-3.76L69.73,101A102.18,102.18,0,0,1,45.59,101.67Z" style="fill:#f6c358"/><path d="M82.77,125.7v11.39a122.34,122.34,0,0,0,21.54-6.93l-1.48-7.08Z" style="fill:#f6c358"/></g></g></svg>