<svg xmlns="http://www.w3.org/2000/svg" viewBox="0 0 166.67 166.67"><g id="Layer_2" data-name="Layer 2"><g id="Layer_1-2" data-name="Layer 1"><rect width="166.67" height="166.67" style="fill:#e24f61"/><ellipse cx="60.25" cy="39.24" rx="19.87" ry="20.71" style="fill:#083e56"/><circle cx="60.25" cy="39.24" r="19.02" style="fill:#ededed"/><circle cx="60.25" cy="39.24" r="13.39" style="fill:#28aace"/><circle cx="60.25" cy="39.24" r="6.9" style="fill:#083e56"/><ellipse cx="54.86" cy="35.89" rx="7.61" ry="5.96" transform="matrix(0.54, -0.84, 0.84, 0.54, -4.96, 62.71)" style="fill:#ededed"/><ellipse cx="106.42" cy="37.55" rx="19.87" ry="20.71" style="fill:#083e56"/><circle cx="106.42" cy="37.54" r="19.02" style="fill:#ededed"/><circle cx="106.42" cy="37.54" r="13.39" transform="translate(3.35 83.49) rotate(-43.46)" style="fill:#28aace"/><circle cx="106.42" cy="37.54" r="6.9" style="fill:#083e56"/><path d="M96,31c2.27-3.54,6.35-5,9.12-3.19s3.18,6.08.92,9.62-6.35,5-9.12,3.19S93.75,34.52,96,31Z" style="fill:#ededed"/><path d="M66.83,72.25s20.56-3.06,38.26,2.7c0,0,8.11,74.89-15.78,74.89S66.83,72.25,66.83,72.25Z" style="fill:#083e56"/><path d="M76.4,89.78l9.17-.85V71.59a110.46,110.46,0,0,0-11.4,0Z" style="fill:#ededed"/></g></g></svg>