<svg xmlns="http://www.w3.org/2000/svg" viewBox="0 0 166.67 166.67"><g id="Layer_2" data-name="Layer 2"><g id="Layer_1-2" data-name="Layer 1"><rect width="166.67" height="166.67" style="fill:#1b586b"/><circle cx="54.11" cy="75.7" r="31.48" style="fill:#ededed"/><circle cx="54.11" cy="75.7" r="22.47" style="fill:#db5657"/><circle cx="54.11" cy="75.7" r="15.53" transform="translate(-37.68 60.44) rotate(-45)" style="fill:#060606"/><path d="M76,70.6a22.49,22.49,0,0,0-13.4-15.71A10.53,10.53,0,1,0,76,70.6Z" style="fill:#ededed"/><circle cx="119.07" cy="62.78" r="24.97" style="fill:#ededed"/><circle cx="119.07" cy="62.78" r="17.82" style="fill:#db5657"/><circle cx="119.07" cy="62.78" r="12.32" style="fill:#060606"/><path d="M136.41,58.74a17.85,17.85,0,0,0-10.63-12.46,8.35,8.35,0,1,0,10.63,12.46Z" style="fill:#ededed"/><path d="M45.58,128.86a139.09,139.09,0,0,1-21.69-1.44,1,1,0,0,1,.34-1.93c.55.1,55.63,9.58,116.88-21.89a1,1,0,1,1,.9,1.74A212.86,212.86,0,0,1,45.58,128.86Z" style="fill:#cddb79"/><path d="M115.26,114.75,113.1,98.24a21.22,21.22,0,0,0-12.68-2.08v23.25Q107.67,117.43,115.26,114.75Z" style="fill:#ededed"/></g></g></svg>